<?xml version="1.0" encoding="utf-8"?>
<svg class="svg-inline fa-home" aria-hidden="true" focusable="false" data-prefix="fas" data-icon="house" role="img" viewBox="0 0 512 500" data-fa-i2svg="" xmlns="http://www.w3.org/2000/svg">
  <path d="M 510.23 251.517 C 510.23 267.405 496.99 279.85 481.985 279.85 L 453.74 279.85 L 454.358 421.162 C 454.358 423.634 454.181 425.929 453.917 428.312 L 453.917 442.611 C 453.917 462.117 438.117 477.917 418.611 477.917 L 404.488 477.917 C 403.517 477.917 402.546 477.122 401.575 477.828 C 400.34 477.122 399.104 477.917 397.868 477.917 L 347.999 477.917 C 328.492 477.917 312.693 462.117 312.693 442.611 L 312.693 364.937 C 312.693 349.315 300.071 336.693 284.448 336.693 L 227.958 336.693 C 212.335 336.693 199.713 349.315 199.713 364.937 L 199.713 442.611 C 199.713 462.117 183.914 477.917 164.408 477.917 L 115.067 477.917 C 113.743 477.917 112.419 477.828 111.095 477.74 C 110.036 477.828 108.977 477.917 107.918 477.917 L 93.796 477.917 C 74.298 477.917 58.49 462.117 58.49 442.611 L 58.49 343.754 C 58.49 342.959 58.516 342.077 58.569 341.282 L 58.569 279.85 L 30.289 279.85 C 14.375 279.85 2 267.405 2 251.517 C 2 243.573 4.651 236.512 10.835 230.333 L 237.138 33.075 C 243.316 26.884 250.378 26 256.556 26 C 262.735 26 269.796 27.769 275.18 32.191 L 500.52 230.333 C 507.582 236.512 511.201 243.573 510.23 251.517 Z" style="stroke-width: 0px; fill: rgb(255, 255, 255);"/>
</svg>