<?xml version="1.0" encoding="utf-8"?>
<svg viewBox="0 0 325 325" xmlns="http://www.w3.org/2000/svg">
  <defs>
    <linearGradient id="color-10">
      <stop style="stop-color: rgb(25, 52, 99);"/>
    </linearGradient>
    <linearGradient id="color-12">
      <stop style="stop-color: rgb(173, 212, 238);"/>
    </linearGradient>
    <linearGradient id="gradient-1">
      <stop offset="0" style="stop-color: rgb(15, 62, 114);"/>
      <stop offset="1" style="stop-color: rgb(44, 128, 173);"/>
    </linearGradient>
    <linearGradient id="color-3">
      <stop style="stop-color: rgb(226, 231, 91);"/>
    </linearGradient>
    <linearGradient id="color-1">
      <stop style="stop-color: #ea5455;"/>
    </linearGradient>
    <linearGradient id="gradient-2" gradientTransform="matrix(0.069307, 1.30022, -0.271016, 0.205802, 0.726826, 0.231773)" spreadMethod="pad">
      <stop style="stop-color: #c31432;" offset="0"/>
      <stop style="stop-color: #240b36;" offset="1"/>
    </linearGradient>
    <linearGradient gradientUnits="userSpaceOnUse" x1="161.989" y1="220.893" x2="161.989" y2="295.945" id="gradient-0" spreadMethod="pad" gradientTransform="matrix(1, 0, 0, 1, 0, 0)">
      <stop offset="0" style="stop-color: rgba(126, 69, 60, 0)"/>
      <stop offset="1" style="stop-color: rgba(57, 31, 27, 0)"/>
    </linearGradient>
  </defs>
  <g transform="matrix(0.339603, 0, 0, 0.412248, 106.635323, 62.851639)">
    <path style="fill: url(#color-10); stroke: rgb(0, 0, 0);" d="M -287.248 -152.279 H 616.248 A 26.752 26.752 0 0 1 643 -125.527 V -11.587 H -314 V -125.527 A 26.752 26.752 0 0 1 -287.248 -152.279 Z"/>
    <text style="fill: url(#color-12); font-family: Arial, sans-serif; font-size: 9.5px; word-spacing: 0.1px; white-space: pre;" transform="matrix(7.806046, 0, 0, 6.165154, -417.292694, -238.47699)" x="20.036" y="29.13"><title>Studio regulus</title>STUDIO REGULUS</text>
    <path style="fill: url(#gradient-1);" transform="matrix(0, 1, -1, 0, 642.999756, -11.548378)" d="M 0 0 H 621.19 A 26.478 26.478 0 0 1 647.668 26.478 V 930.522 A 26.478 26.478 0 0 1 621.19 957 H 0 V 0 Z"/>
  </g>
  <g style="" transform="matrix(1, 0, 0, 1.023522, 0, -2.854703)">
    <text style="fill: rgb(248, 248, 248); font-family: Arial, sans-serif; font-size: 10.2669px; line-height: 16.4271px; white-space: pre;" transform="matrix(1.807636, 0, 0, 1.617746, -16.49403, -48.842205)" x="20.376" y="86.863"><title>Katica BH</title>prof.def. Katica Buljan Herceg</text>
    <text style="fill: rgb(255, 255, 255); font-family: Arial, sans-serif; font-size: 9.90543px; white-space: pre;" transform="matrix(1.79692, 0, 0, 1.676789, -17.339878, -70.84082)" x="21.735" y="112.673"><title>0981899159</title>098/18-00-159</text>
  </g>
  <g>
    <text style="fill: url(#color-3); font-family: Arial, sans-serif; font-size: 16.3636px; font-weight: 700; white-space: pre;" transform="matrix(1, 0, 0, 1.1, 0, -16.710642)" x="18.395" y="164.05"><title>savjetovanje</title>SAVJETOVANJE</text>
    <text style="fill: url(#color-3); font-family: Arial, sans-serif; font-size: 15.7857px; font-weight: 700; letter-spacing: -0.1px; white-space: pre;" transform="matrix(1, 0, 0, 1.076923, 0, -14.985619)" x="19.376" y="191.417"><title>Tretmani regu</title>TRETMANI REGULIRANJA BIOPOLJA</text>
  </g>
  <g style="">
    <path d="M 28.489 216.893 H 295.489 A 7 7 0 0 1 302.489 223.893 V 293.893 A 7 7 0 0 1 295.489 300.893 H 28.489 A 7 7 0 0 1 21.489 293.893 V 223.893 A 7 7 0 0 1 28.489 216.893 Z" style="fill: url(#color-1); stroke-width: 0px; stroke: rgba(126, 69, 60, 0); stroke-miterlimit: 0; paint-order: stroke;"/>
    <path d="M 33.489 220.893 H 290.489 A 7 7 0 0 1 297.489 227.893 V 288.945 A 7 7 0 0 1 290.489 295.945 H 33.489 A 7 7 0 0 1 26.489 288.945 V 227.893 A 7 7 0 0 1 33.489 220.893 Z" style="stroke-width: 0px; stroke-miterlimit: 0; stroke: url(#gradient-0); paint-order: fill; fill: url(#gradient-2); fill-rule: nonzero;"/>
    <text style="fill: rgb(248, 248, 248); font-family: Arial, sans-serif; font-size: 19px; white-space: pre;" x="50.638" y="250.918"><title>za savjetovanje</title>Za savjetovanje i tretmane</text>
    <text style="fill: rgb(255, 255, 255); font-family: Arial, sans-serif; font-size: 17px; font-weight: 700; white-space: pre;" x="91.182" y="277.603"><title>kliknite ovdje</title>KLIKNITE OVDJE</text>
  </g>
</svg>