<?xml version="1.0" encoding="utf-8"?>
<svg viewBox="0 0 138 30" xmlns="http://www.w3.org/2000/svg">
  <g transform="matrix(1.311674, 0, 0, 1.311674, -10.126928, -21.619389)" style="">
    <path d="M 86.642 22.95 L 86.642 25.149 L 85.24 25.149 L 85.24 28.125 L 82.586 28.125 L 82.586 25.149 L 77.203 25.149 L 77.203 22.913 L 82.112 14.686 L 85.24 14.686 L 85.24 22.95 Z M 82.586 22.95 L 82.586 17.207 L 79.079 22.95 Z" transform="matrix(1.079765, 0, 0, 1.055161, 19.207094, 5.502482)" style="fill: rgb(73, 185, 245); line-height: 28.8108px; white-space: pre;"/>
    <path d="M 8.505 22.405 L 8.505 32.972 L 10.459 32.972 L 10.459 24.536 L 10.489 24.536 L 12.368 32.972 L 14.026 32.972 L 15.905 24.536 L 15.935 24.536 L 15.935 32.972 L 17.889 32.972 L 17.889 22.405 L 14.736 22.405 L 13.212 29.864 L 13.182 29.864 L 11.673 22.405 Z M 23.779 22.405 L 21.381 22.405 L 24.119 28.813 L 24.119 32.972 L 26.25 32.972 L 26.25 28.813 L 28.988 22.405 L 26.68 22.405 L 25.2 26.49 L 25.17 26.49 Z M 36.455 22.405 L 36.455 32.972 L 38.586 32.972 L 38.586 28.28 L 41.072 28.28 L 41.072 32.972 L 43.204 32.972 L 43.204 22.405 L 41.072 22.405 L 41.072 26.445 L 38.586 26.445 L 38.586 22.405 Z M 53.522 22.405 L 47.617 22.405 L 47.617 32.972 L 53.67 32.972 L 53.67 31.226 L 49.748 31.226 L 49.748 28.384 L 53.3 28.384 L 53.3 26.638 L 49.748 26.638 L 49.748 24.151 L 53.522 24.151 Z M 57.408 32.972 L 63.314 32.972 L 63.314 31.226 L 59.54 31.226 L 59.54 22.405 L 57.408 22.405 Z M 68.51 27.185 L 68.51 23.974 L 69.398 23.974 Q 70.197 23.974 70.537 24.388 Q 70.878 24.802 70.878 25.602 Q 70.878 26.416 70.485 26.8 Q 70.093 27.185 69.457 27.185 Z M 66.378 22.405 L 66.378 32.972 L 68.51 32.972 L 68.51 28.754 L 69.649 28.754 Q 70.404 28.754 71.026 28.562 Q 71.647 28.369 72.084 27.984 Q 72.52 27.6 72.765 26.993 Q 73.009 26.386 73.009 25.572 Q 73.009 24.98 72.861 24.41 Q 72.713 23.84 72.372 23.396 Q 72.032 22.952 71.477 22.679 Q 70.922 22.405 70.108 22.405 Z M 82.349 22.405 L 76.444 22.405 L 76.444 32.972 L 82.497 32.972 L 82.497 31.226 L 78.575 31.226 L 78.575 28.384 L 82.127 28.384 L 82.127 26.638 L 78.575 26.638 L 78.575 24.151 L 82.349 24.151 Z M 86.236 22.405 L 86.236 32.972 L 88.367 32.972 L 88.367 28.502 L 89.507 28.502 Q 90.173 28.502 90.454 28.858 Q 90.735 29.213 90.765 29.834 L 90.824 31.862 Q 90.839 32.173 90.883 32.461 Q 90.928 32.75 91.091 32.972 L 93.399 32.972 L 93.399 32.883 Q 93.103 32.72 93.015 32.276 Q 92.955 31.832 92.926 30.989 Q 92.911 30.56 92.896 30.212 Q 92.881 29.864 92.852 29.568 Q 92.763 28.68 92.393 28.28 Q 92.023 27.881 91.224 27.762 L 91.224 27.733 Q 92.127 27.54 92.556 26.867 Q 92.985 26.194 92.985 25.128 Q 92.985 23.752 92.245 23.078 Q 91.505 22.405 90.173 22.405 Z M 88.367 27.022 L 88.367 23.974 L 89.374 23.974 Q 90.854 23.974 90.854 25.439 Q 90.854 26.297 90.439 26.66 Q 90.025 27.022 89.255 27.022 Z" style="fill: rgb(255, 255, 255); text-transform: uppercase; white-space: pre;"/>
  </g>
</svg>