<?xml version="1.0" encoding="utf-8"?>
<svg viewBox="0 0 100 30" xmlns="http://www.w3.org/2000/svg">
  <g transform="matrix(1.311674, 0, 0, 1.311674, -10.126928, -21.619389)" style="">
    <path d="M 86.642 22.95 L 86.642 25.149 L 85.24 25.149 L 85.24 28.125 L 82.586 28.125 L 82.586 25.149 L 77.203 25.149 L 77.203 22.913 L 82.112 14.686 L 85.24 14.686 L 85.24 22.95 Z M 82.586 22.95 L 82.586 17.207 L 79.079 22.95 Z" transform="matrix(1.079765, 0, 0, 1.055161, -10.525902, 5.502482)" style="fill: rgb(73, 185, 245); line-height: 28.8108px; white-space: pre;"/>
    <path d="M 9.223 22.405 L 9.223 32.972 L 11.354 32.972 L 11.354 28.28 L 13.841 28.28 L 13.841 32.972 L 15.972 32.972 L 15.972 22.405 L 13.841 22.405 L 13.841 26.445 L 11.354 26.445 L 11.354 22.405 Z M 26.29 22.405 L 20.385 22.405 L 20.385 32.972 L 26.438 32.972 L 26.438 31.226 L 22.516 31.226 L 22.516 28.384 L 26.068 28.384 L 26.068 26.638 L 22.516 26.638 L 22.516 24.151 L 26.29 24.151 Z M 30.165 32.972 L 36.07 32.972 L 36.07 31.226 L 32.296 31.226 L 32.296 22.405 L 30.165 22.405 Z M 41.278 27.185 L 41.278 23.974 L 42.166 23.974 Q 42.965 23.974 43.305 24.388 Q 43.646 24.802 43.646 25.602 Q 43.646 26.416 43.254 26.8 Q 42.861 27.185 42.225 27.185 Z M 39.147 22.405 L 39.147 32.972 L 41.278 32.972 L 41.278 28.754 L 42.417 28.754 Q 43.172 28.754 43.794 28.562 Q 44.415 28.369 44.852 27.984 Q 45.289 27.6 45.533 26.993 Q 45.777 26.386 45.777 25.572 Q 45.777 24.98 45.629 24.41 Q 45.481 23.84 45.141 23.396 Q 44.8 22.952 44.245 22.679 Q 43.69 22.405 42.876 22.405 Z M 55.118 22.405 L 49.212 22.405 L 49.212 32.972 L 55.266 32.972 L 55.266 31.226 L 51.344 31.226 L 51.344 28.384 L 54.896 28.384 L 54.896 26.638 L 51.344 26.638 L 51.344 24.151 L 55.118 24.151 Z M 58.992 22.405 L 58.992 32.972 L 61.124 32.972 L 61.124 28.502 L 62.263 28.502 Q 62.929 28.502 63.21 28.858 Q 63.492 29.213 63.521 29.834 L 63.58 31.862 Q 63.595 32.173 63.64 32.461 Q 63.684 32.75 63.847 32.972 L 66.156 32.972 L 66.156 32.883 Q 65.86 32.72 65.771 32.276 Q 65.712 31.832 65.682 30.989 Q 65.667 30.56 65.652 30.212 Q 65.638 29.864 65.608 29.568 Q 65.519 28.68 65.149 28.28 Q 64.779 27.881 63.98 27.762 L 63.98 27.733 Q 64.883 27.54 65.312 26.867 Q 65.741 26.194 65.741 25.128 Q 65.741 23.752 65.001 23.078 Q 64.261 22.405 62.929 22.405 Z M 61.124 27.022 L 61.124 23.974 L 62.13 23.974 Q 63.61 23.974 63.61 25.439 Q 63.61 26.297 63.196 26.66 Q 62.781 27.022 62.012 27.022 Z" style="fill: rgb(255, 255, 255); text-transform: uppercase; white-space: pre;"/>
  </g>
</svg>