<?xml version="1.0" encoding="utf-8"?>
<svg viewBox="0 0 130 34" xmlns="http://www.w3.org/2000/svg">
  <g transform="matrix(1.311674, 0, 0, 1.311674, -17.126928, -24.619389)" style="">
    <path d="M 86.642 22.95 L 86.642 25.149 L 85.24 25.149 L 85.24 28.125 L 82.586 28.125 L 82.586 25.149 L 77.203 25.149 L 77.203 22.913 L 82.112 14.686 L 85.24 14.686 L 85.24 22.95 Z M 82.586 22.95 L 82.586 17.207 L 79.079 22.95 Z" transform="matrix(1.079765, 0, 0, 1.055161, 15.395172, 5.502482)" style="fill: rgb(73, 185, 245); line-height: 28.8108px; white-space: pre;"/>
    <path d="M 34.039 22.405 L 34.039 32.972 L 36.17 32.972 L 36.17 28.28 L 38.657 28.28 L 38.657 32.972 L 40.788 32.972 L 40.788 22.405 L 38.657 22.405 L 38.657 26.445 L 36.17 26.445 L 36.17 22.405 Z M 51.106 22.405 L 45.201 22.405 L 45.201 32.972 L 51.254 32.972 L 51.254 31.226 L 47.332 31.226 L 47.332 28.384 L 50.884 28.384 L 50.884 26.638 L 47.332 26.638 L 47.332 24.151 L 51.106 24.151 Z M 54.981 32.972 L 60.886 32.972 L 60.886 31.226 L 57.112 31.226 L 57.112 22.405 L 54.981 22.405 Z M 66.094 27.185 L 66.094 23.974 L 66.982 23.974 Q 67.781 23.974 68.121 24.388 Q 68.462 24.802 68.462 25.602 Q 68.462 26.416 68.07 26.8 Q 67.677 27.185 67.041 27.185 Z M 63.963 22.405 L 63.963 32.972 L 66.094 32.972 L 66.094 28.754 L 67.233 28.754 Q 67.988 28.754 68.61 28.562 Q 69.231 28.369 69.668 27.984 Q 70.105 27.6 70.349 26.993 Q 70.593 26.386 70.593 25.572 Q 70.593 24.98 70.445 24.41 Q 70.297 23.84 69.957 23.396 Q 69.616 22.952 69.061 22.679 Q 68.506 22.405 67.692 22.405 Z M 79.934 22.405 L 74.028 22.405 L 74.028 32.972 L 80.082 32.972 L 80.082 31.226 L 76.16 31.226 L 76.16 28.384 L 79.712 28.384 L 79.712 26.638 L 76.16 26.638 L 76.16 24.151 L 79.934 24.151 Z M 83.808 22.405 L 83.808 32.972 L 85.94 32.972 L 85.94 28.502 L 87.079 28.502 Q 87.745 28.502 88.026 28.858 Q 88.308 29.213 88.337 29.834 L 88.396 31.862 Q 88.411 32.173 88.456 32.461 Q 88.5 32.75 88.663 32.972 L 90.972 32.972 L 90.972 32.883 Q 90.676 32.72 90.587 32.276 Q 90.528 31.832 90.498 30.989 Q 90.483 30.56 90.468 30.212 Q 90.454 29.864 90.424 29.568 Q 90.335 28.68 89.965 28.28 Q 89.595 27.881 88.796 27.762 L 88.796 27.733 Q 89.699 27.54 90.128 26.867 Q 90.557 26.194 90.557 25.128 Q 90.557 23.752 89.817 23.078 Q 89.077 22.405 87.745 22.405 Z M 85.94 27.022 L 85.94 23.974 L 86.946 23.974 Q 88.426 23.974 88.426 25.439 Q 88.426 26.297 88.012 26.66 Q 87.597 27.022 86.828 27.022 Z" style="fill: rgb(255, 255, 255); text-transform: uppercase; white-space: pre;"/>
  </g>
  <path d="M 6.111 14.807 L 6.064 14.807 Q 5.982 14.807 5.927 14.786 Q 5.681 14.636 5.599 14.233 Q 5.537 13.645 5.537 12.346 L 5.578 10.152 Q 5.578 9.065 5.435 8.778 Q 5.161 9.051 5.025 9.29 Q 4.047 10.862 3.548 13.289 Q 3.473 13.556 3.206 13.556 Q 2.919 13.535 2.871 13.269 Q 2.7 11.97 2.605 10.152 Q 2.605 9.83 2.933 9.782 Q 3.254 9.782 3.302 10.117 Q 3.363 11.307 3.384 11.361 Q 3.903 9.666 4.696 8.613 Q 5.093 8.149 5.503 8.108 Q 5.783 8.135 5.947 8.367 Q 6.18 8.702 6.2 9.981 Q 6.194 11.136 6.152 11.628 L 6.132 13.111 Q 6.446 9.796 6.87 9.277 Q 7.069 9.024 7.342 9.024 Q 7.902 9.024 8.101 10.008 L 8.203 10.746 Q 8.374 11.696 8.695 11.772 Q 8.771 11.772 8.88 11.731 Q 9.318 11.58 10.562 9.987 Q 10.664 9.912 10.76 9.912 Q 10.835 9.912 10.903 9.97 Q 10.972 10.028 10.972 10.138 Q 10.972 10.24 10.787 10.466 Q 9.905 11.573 9.434 11.956 Q 9.147 12.175 8.798 12.264 L 8.552 12.243 Q 7.834 12.1 7.67 10.439 Q 7.561 9.557 7.342 9.557 Q 7.301 9.557 7.28 9.598 Q 7.26 9.639 7.219 9.7 Q 6.939 10.261 6.747 12.694 Q 6.611 14.335 6.467 14.55 Q 6.323 14.766 6.111 14.807 Z M 12.943 32.286 Q 12.478 32.286 12.122 31.999 Q 10.899 31.022 10.899 28.007 Q 10.899 25.416 11.979 21.971 Q 13.483 17.138 16.552 13.07 Q 16.367 11.977 16.183 11.491 Q 16.087 11.526 15.609 11.943 Q 14.18 13.426 13.599 13.788 Q 13.107 14.096 12.601 14.157 Q 12.3 14.157 12.061 14.034 Q 10.858 13.522 10.482 10.158 Q 10.482 10.022 10.564 9.916 Q 10.646 9.81 10.789 9.789 Q 11.138 9.789 11.179 10.097 Q 11.261 10.979 11.466 11.799 Q 11.883 13.46 12.614 13.46 Q 13.264 13.412 14.604 12.004 Q 15.301 11.307 15.479 11.143 Q 15.82 10.821 16.21 10.787 Q 16.709 10.828 16.86 11.283 Q 17.01 11.737 17.106 12.353 Q 19.109 9.912 19.505 9.912 Q 19.717 9.912 19.717 10.124 Q 19.717 10.234 19.649 10.322 Q 18.623 11.225 17.208 12.988 Q 17.488 14.704 17.488 17.787 Q 17.482 20.44 17.229 23.078 Q 16.976 25.84 16.449 27.487 Q 15.342 31.186 13.66 32.102 Q 13.332 32.286 12.943 32.286 Z M 12.929 31.712 Q 13.161 31.712 13.414 31.589 Q 14.829 30.796 15.875 27.303 Q 16.832 24.124 16.832 17.787 Q 16.771 14.677 16.634 13.768 Q 12.833 19.025 11.671 25.519 Q 11.452 26.818 11.452 27.925 Q 11.452 30.256 12.204 31.281 Q 12.546 31.712 12.929 31.712 Z" style="fill: rgba(255, 255, 255, 0.9); text-transform: lowercase; white-space: pre;"/>
</svg>