<?xml version="1.0" encoding="utf-8"?>
<svg height="50" width="165" viewBox="0 0 165 50" xmlns="http://www.w3.org/2000/svg">
  <clipPath id="a">
    <path d="m0 0h512v512h-512z"/>
  </clipPath>
  <g transform="matrix(1, 0, 0, 1, -0.320855, -3.811872)">
    <g fill="#fe4088" transform="matrix(0, -0.163716, 0.163716, 0, 8.323805, 49.194515)" clip-path="url(#a)" style="">
      <path d="m169.61837769 201h-90.23678589c-7.04475403 0-13.64500428-3.76907349-17.22504425-9.83641052l-44.54854012-75.5c-3.69908333-6.26912689-3.69908333-14.05803681 0-20.3271637l44.54858208-75.50000191c3.58004379-6.06733322 10.18029403-9.83641624 17.22504043-9.83641624h90.23674775c7.0447998 0 13.64505004 3.76908302 17.22505188 9.83641624l44.54858398 75.50000191c3.69908142 6.26912689 3.69908142 14.05803681 0 20.3271637l-44.54858398 75.5c-3.58000184 6.06733703-10.18025208 9.83641052-17.22505188 9.83641052z"/>
      <path d="m79.38165283 20.00001526c-3.5223999 0-6.82254028 1.88453674-8.61248779 4.91819763l-44.5486145 75.49994659c-1.84954834 3.13459778-1.84954834 7.02904511 0 10.16359711l44.54855346 75.5c1.79000855 3.03370667 5.09010315 4.91824341 8.61250306 4.91824341h90.23674011c3.5223999 0 6.8225708-1.88453674 8.61251831-4.91819763l44.54858398-75.4999466c1.8495636-3.13459777 1.8495636-7.02909851 0-10.16365051l-44.54858398-75.49999237c-1.78994751-3.03366089-5.09011841-4.91819763-8.61251831-4.91819763zm0-20h90.23669434c10.61656189 0 20.4424591 5.61109924 25.83755493 14.75459289l44.54859924 75.5c5.54995728 9.40595246 5.54995728 21.0848465 0 30.49079895l-44.54859924 75.5c-5.39509583 9.14344788-15.22099304 14.7545929-25.83755493 14.7545929h-90.23674011c-10.61654664 0-20.44244385-5.61114502-25.83755494-14.75463867l-44.5485382-75.5c-5.54995728-9.40590668-5.54995728-21.08480072 0-30.49075318l44.54859924-75.5c5.39509582-9.14349365 15.22099304-14.75459289 25.83753967-14.75459289z" fill="#c9177e"/>
      <path d="M 75.745 171.252 L 75.745 44.137 L 102.345 44.137 L 102.345 90.439 L 146.461 90.439 L 146.461 44.137 L 173.135 44.137 L 173.135 171.252 L 146.457 171.252 L 146.457 115.672 L 102.341 115.672 L 102.341 171.252 L 75.745 171.252 Z" style="fill: rgb(255, 255, 255);" transform="matrix(0, 1, -1, 0, 232.134499, -16.745499)"/>
    </g>
    <g fill="#0b94cb" transform="matrix(0, -0.163716, 0.163716, 0, 46.469734, 49.194515)" clip-path="url(#a)" style="">
      <path d="m169.61837769 201h-90.23678589c-7.04475403 0-13.64500428-3.76907349-17.22504425-9.83641052l-44.54854012-75.5c-3.69908333-6.26912689-3.69908333-14.05803681 0-20.3271637l44.54858208-75.50000191c3.58004379-6.06733322 10.18029403-9.83641624 17.22504043-9.83641624h90.23674775c7.0447998 0 13.64505004 3.76908302 17.22505188 9.83641624l44.54858398 75.50000191c3.69908142 6.26912689 3.69908142 14.05803681 0 20.3271637l-44.54858398 75.5c-3.58000184 6.06733703-10.18025208 9.83641052-17.22505188 9.83641052z"/>
      <path d="m79.38165283 20.00001526c-3.5223999 0-6.82254028 1.88453674-8.61248779 4.91819763l-44.5486145 75.49994659c-1.84954834 3.13459778-1.84954834 7.02904511 0 10.16359711l44.54855346 75.5c1.79000855 3.03370667 5.09010315 4.91824341 8.61250306 4.91824341h90.23674011c3.5223999 0 6.8225708-1.88453674 8.61251831-4.91819763l44.54858398-75.4999466c1.8495636-3.13459777 1.8495636-7.02909851 0-10.16365051l-44.54858398-75.49999237c-1.78994751-3.03366089-5.09011841-4.91819763-8.61251831-4.91819763zm0-20h90.23669434c10.61656189 0 20.4424591 5.61109924 25.83755493 14.75459289l44.54859924 75.5c5.54995728 9.40595246 5.54995728 21.0848465 0 30.49079895l-44.54859924 75.5c-5.39509583 9.14344788-15.22099304 14.7545929-25.83755493 14.7545929h-90.23674011c-10.61654664 0-20.44244385-5.61114502-25.83755494-14.75463867l-44.5485382-75.5c-5.54995728-9.40590668-5.54995728-21.08480072 0-30.49075318l44.54859924-75.5c5.39509582-9.14349365 15.22099304-14.75459289 25.83753967-14.75459289z" fill="#0883c0"/>
      <path d="M 76.538 41.272 L 102.481 41.272 L 102.481 110.078 C 102.481 121 102.781 128.076 103.38 131.313 C 104.418 136.513 106.334 140.123 110.237 143.272 C 114.141 146.421 118.701 147.314 125.47 147.314 C 132.351 147.314 134.651 146.249 138.147 143.272 C 141.64 140.298 143.741 137.463 144.452 133.128 C 145.701 126.002 146.331 118.781 146.335 111.546 L 146.335 41.268 L 172.274 41.268 L 172.274 108 C 172.274 123.253 171.617 134.027 170.304 140.325 C 168.25 152.217 160.15 162.183 148.924 166.625 C 143.024 169.195 135.325 170.482 125.824 170.482 C 114.36 170.482 105.664 169.081 99.74 166.282 C 94.253 163.82 89.434 160.075 85.692 155.363 C 82.415 151.227 80.094 146.418 78.892 141.278 C 77.309 134 76.518 123.253 76.514 109.041 L 76.514 41.272 L 76.538 41.272 Z" transform="matrix(0, 1, -1, 0, 230.268997, -18.519005)" style="fill: rgb(255, 255, 255);"/>
    </g>
    <g fill="#ebb951" transform="matrix(0, -0.163716, 0.163716, 0, 122.773827, 49.194515)" clip-path="url(#a)" style="">
      <path d="m169.61837769 201h-90.23678589c-7.04475403 0-13.64500428-3.76907349-17.22504425-9.83641052l-44.54854012-75.5c-3.69908333-6.26912689-3.69908333-14.05803681 0-20.3271637l44.54858208-75.50000191c3.58004379-6.06733322 10.18029403-9.83641624 17.22504043-9.83641624h90.23674775c7.0447998 0 13.64505004 3.76908302 17.22505188 9.83641624l44.54858398 75.50000191c3.69908142 6.26912689 3.69908142 14.05803681 0 20.3271637l-44.54858398 75.5c-3.58000184 6.06733703-10.18025208 9.83641052-17.22505188 9.83641052z"/>
      <path d="m79.38165283 20.00001526c-3.5223999 0-6.82254028 1.88453674-8.61248779 4.91819763l-44.5486145 75.49994659c-1.84954834 3.13459778-1.84954834 7.02904511 0 10.16359711l44.54855346 75.5c1.79000855 3.03370667 5.09010315 4.91824341 8.61250306 4.91824341h90.23674011c3.5223999 0 6.8225708-1.88453674 8.61251831-4.91819763l44.54858398-75.4999466c1.8495636-3.13459777 1.8495636-7.02909851 0-10.16365051l-44.54858398-75.49999237c-1.78994751-3.03366089-5.09011841-4.91819763-8.61251831-4.91819763zm0-20h90.23669434c10.61656189 0 20.4424591 5.61109924 25.83755493 14.75459289l44.54859924 75.5c5.54995728 9.40595246 5.54995728 21.0848465 0 30.49079895l-44.54859924 75.5c-5.39509583 9.14344788-15.22099304 14.7545929-25.83755493 14.7545929h-90.23674011c-10.61654664 0-20.44244385-5.61114502-25.83755494-14.75463867l-44.5485382-75.5c-5.54995728-9.40590668-5.54995728-21.08480072 0-30.49075318l44.54859924-75.5c5.39509582-9.14349365 15.22099304-14.75459289 25.83753967-14.75459289z" fill="#fcd804"/>
      <path d="M 124.663 40 C 174.963 40.003 206.396 94.456 181.244 138.015 C 156.091 181.574 93.217 181.57 68.07 138.008 C 62.336 128.076 59.318 116.809 59.318 105.341 C 59.337 69.261 88.583 40.017 124.663 40 L 124.663 40 Z M 124.663 64.275 C 156.273 64.278 176.025 98.499 160.217 125.872 C 144.409 153.245 104.897 153.241 89.096 125.864 C 73.296 98.491 93.048 64.278 124.654 64.275 L 124.663 64.275 Z" fill-rule="evenodd" transform="matrix(0, 1, -1, 0, 230.048637, -19.366753)" style="fill: rgb(242, 242, 242);"/>
    </g>
    <g fill="#33ba91" transform="matrix(0, -0.163716, 0.163716, 0, 84.627892, 49.194515)" clip-path="url(#a)" style="">
      <path d="m169.61837769 201h-90.23678589c-7.04475403 0-13.64500428-3.76907349-17.22504425-9.83641052l-44.54854012-75.5c-3.69908333-6.26912689-3.69908333-14.05803681 0-20.3271637l44.54858208-75.50000191c3.58004379-6.06733322 10.18029403-9.83641624 17.22504043-9.83641624h90.23674775c7.0447998 0 13.64505004 3.76908302 17.22505188 9.83641624l44.54858398 75.50000191c3.69908142 6.26912689 3.69908142 14.05803681 0 20.3271637l-44.54858398 75.5c-3.58000184 6.06733703-10.18025208 9.83641052-17.22505188 9.83641052z"/>
      <path d="m79.38165283 20.00001526c-3.5223999 0-6.82254028 1.88453674-8.61248779 4.91819763l-44.5486145 75.49994659c-1.84954834 3.13459778-1.84954834 7.02904511 0 10.16359711l44.54855346 75.5c1.79000855 3.03370667 5.09010315 4.91824341 8.61250306 4.91824341h90.23674011c3.5223999 0 6.8225708-1.88453674 8.61251831-4.91819763l44.54858398-75.4999466c1.8495636-3.13459777 1.8495636-7.02909851 0-10.16365051l-44.54858398-75.49999237c-1.78994751-3.03366089-5.09011841-4.91819763-8.61251831-4.91819763zm0-20h90.23669434c10.61656189 0 20.4424591 5.61109924 25.83755493 14.75459289l44.54859924 75.5c5.54995728 9.40595246 5.54995728 21.0848465 0 30.49079895l-44.54859924 75.5c-5.39509583 9.14344788-15.22099304 14.7545929-25.83755493 14.7545929h-90.23674011c-10.61654664 0-20.44244385-5.61114502-25.83755494-14.75463867l-44.5485382-75.5c-5.54995728-9.40590668-5.54995728-21.08480072 0-30.49075318l44.54859924-75.5c5.39509582-9.14349365 15.22099304-14.75459289 25.83753967-14.75459289z" fill="#0fa88a"/>
      <path d="M 186.497 104.835 C 186.497 133.782 181.011 142.215 170.047 154.269 C 159.083 166.323 144.547 171.18 126.431 171.18 C 109.874 171.18 96.525 165.306 84.956 155.089 C 72.147 143.773 62.823 126.234 62.823 106.66 C 62.823 87.416 70.013 70.782 82.754 58.396 C 93.931 47.558 110.568 40.496 127.726 40.496 C 149.889 40.499 170.633 51.402 183.203 69.655 L 163.738 86.108 C 155.487 70.753 143.531 65.582 126.428 65.091 C 107.515 64.551 86.695 82.591 88.241 106.652 C 89.1 120.111 95.388 143.244 125.641 147.489 C 141.536 149.716 159.602 132.754 159.602 123.54 L 129.738 123.54 L 129.738 100.54 L 186.487 100.54 L 186.487 104.823 L 186.497 104.835 Z" transform="matrix(0, 1, -1, 0, 230.497993, -18.822006)" style="fill: rgb(255, 255, 255);"/>
    </g>
  </g>
</svg>