<?xml version="1.0" encoding="utf-8"?><svg height="512" width="512" viewBox="0 0 30 30" xmlns="http://www.w3.org/2000/svg"><clipPath id="a"><path d="m0 0h512v512h-512z"/></clipPath><g transform="matrix(0.672774, 0, 0, 0.672774, -2.035212, -4.383875)" style=""><g fill="#fe4088" transform="matrix(0, -0.186315, 0.186315, 0, 5.664619, 52.008091)" clip-path="url(#a)" style=""><path d="m169.61837769 201h-90.23678589c-7.04475403 0-13.64500428-3.76907349-17.22504425-9.83641052l-44.54854012-75.5c-3.69908333-6.26912689-3.69908333-14.05803681 0-20.3271637l44.54858208-75.50000191c3.58004379-6.06733322 10.18029403-9.83641624 17.22504043-9.83641624h90.23674775c7.0447998 0 13.64505004 3.76908302 17.22505188 9.83641624l44.54858398 75.50000191c3.69908142 6.26912689 3.69908142 14.05803681 0 20.3271637l-44.54858398 75.5c-3.58000184 6.06733703-10.18025208 9.83641052-17.22505188 9.83641052z"/><path d="m79.38165283 20.00001526c-3.5223999 0-6.82254028 1.88453674-8.61248779 4.91819763l-44.5486145 75.49994659c-1.84954834 3.13459778-1.84954834 7.02904511 0 10.16359711l44.54855346 75.5c1.79000855 3.03370667 5.09010315 4.91824341 8.61250306 4.91824341h90.23674011c3.5223999 0 6.8225708-1.88453674 8.61251831-4.91819763l44.54858398-75.4999466c1.8495636-3.13459777 1.8495636-7.02909851 0-10.16365051l-44.54858398-75.49999237c-1.78994751-3.03366089-5.09011841-4.91819763-8.61251831-4.91819763zm0-20h90.23669434c10.61656189 0 20.4424591 5.61109924 25.83755493 14.75459289l44.54859924 75.5c5.54995728 9.40595246 5.54995728 21.0848465 0 30.49079895l-44.54859924 75.5c-5.39509583 9.14344788-15.22099304 14.7545929-25.83755493 14.7545929h-90.23674011c-10.61654664 0-20.44244385-5.61114502-25.83755494-14.75463867l-44.5485382-75.5c-5.54995728-9.40590668-5.54995728-21.08480072 0-30.49075318l44.54859924-75.5c5.39509582-9.14349365 15.22099304-14.75459289 25.83753967-14.75459289z" fill="#c9177e"/><path d="M 75.745 171.252 L 75.745 44.137 L 102.345 44.137 L 102.345 90.439 L 146.461 90.439 L 146.461 44.137 L 173.135 44.137 L 173.135 171.252 L 146.457 171.252 L 146.457 115.672 L 102.341 115.672 L 102.341 171.252 L 75.745 171.252 Z" style="fill: rgb(255, 255, 255);" transform="matrix(0, 1, -1, 0, 232.134499, -16.745499)"/></g></g></svg>