<?xml version="1.0" encoding="utf-8"?>
<svg height="165" width="165" viewBox="0 0 165 165" xmlns="http://www.w3.org/2000/svg">
  <clipPath id="a">
    <path d="m0 0h512v512h-512z"/>
  </clipPath>
  <g clip-path="url(#a)" style="" transform="matrix(0.29692, 0, 0, 0.29692, 6.488467, 6.488472)">
    <g fill="#fe4088" transform="matrix(0 -1 1 0 34 254)">
      <path d="m169.61837769 201h-90.23678589c-7.04475403 0-13.64500428-3.76907349-17.22504425-9.83641052l-44.54854012-75.5c-3.69908333-6.26912689-3.69908333-14.05803681 0-20.3271637l44.54858208-75.50000191c3.58004379-6.06733322 10.18029403-9.83641624 17.22504043-9.83641624h90.23674775c7.0447998 0 13.64505004 3.76908302 17.22505188 9.83641624l44.54858398 75.50000191c3.69908142 6.26912689 3.69908142 14.05803681 0 20.3271637l-44.54858398 75.5c-3.58000184 6.06733703-10.18025208 9.83641052-17.22505188 9.83641052z"/>
      <path d="m79.38165283 20.00001526c-3.5223999 0-6.82254028 1.88453674-8.61248779 4.91819763l-44.5486145 75.49994659c-1.84954834 3.13459778-1.84954834 7.02904511 0 10.16359711l44.54855346 75.5c1.79000855 3.03370667 5.09010315 4.91824341 8.61250306 4.91824341h90.23674011c3.5223999 0 6.8225708-1.88453674 8.61251831-4.91819763l44.54858398-75.4999466c1.8495636-3.13459777 1.8495636-7.02909851 0-10.16365051l-44.54858398-75.49999237c-1.78994751-3.03366089-5.09011841-4.91819763-8.61251831-4.91819763zm0-20h90.23669434c10.61656189 0 20.4424591 5.61109924 25.83755493 14.75459289l44.54859924 75.5c5.54995728 9.40595246 5.54995728 21.0848465 0 30.49079895l-44.54859924 75.5c-5.39509583 9.14344788-15.22099304 14.7545929-25.83755493 14.7545929h-90.23674011c-10.61654664 0-20.44244385-5.61114502-25.83755494-14.75463867l-44.5485382-75.5c-5.54995728-9.40590668-5.54995728-21.08480072 0-30.49075318l44.54859924-75.5c5.39509582-9.14349365 15.22099304-14.75459289 25.83753967-14.75459289z" fill="#c9177e"/>
    </g>
    <g fill="#0b94cb" transform="matrix(0 -1 1 0 267 254)">
      <path d="m169.61837769 201h-90.23678589c-7.04475403 0-13.64500428-3.76907349-17.22504425-9.83641052l-44.54854012-75.5c-3.69908333-6.26912689-3.69908333-14.05803681 0-20.3271637l44.54858208-75.50000191c3.58004379-6.06733322 10.18029403-9.83641624 17.22504043-9.83641624h90.23674775c7.0447998 0 13.64505004 3.76908302 17.22505188 9.83641624l44.54858398 75.50000191c3.69908142 6.26912689 3.69908142 14.05803681 0 20.3271637l-44.54858398 75.5c-3.58000184 6.06733703-10.18025208 9.83641052-17.22505188 9.83641052z"/>
      <path d="m79.38165283 20.00001526c-3.5223999 0-6.82254028 1.88453674-8.61248779 4.91819763l-44.5486145 75.49994659c-1.84954834 3.13459778-1.84954834 7.02904511 0 10.16359711l44.54855346 75.5c1.79000855 3.03370667 5.09010315 4.91824341 8.61250306 4.91824341h90.23674011c3.5223999 0 6.8225708-1.88453674 8.61251831-4.91819763l44.54858398-75.4999466c1.8495636-3.13459777 1.8495636-7.02909851 0-10.16365051l-44.54858398-75.49999237c-1.78994751-3.03366089-5.09011841-4.91819763-8.61251831-4.91819763zm0-20h90.23669434c10.61656189 0 20.4424591 5.61109924 25.83755493 14.75459289l44.54859924 75.5c5.54995728 9.40595246 5.54995728 21.0848465 0 30.49079895l-44.54859924 75.5c-5.39509583 9.14344788-15.22099304 14.7545929-25.83755493 14.7545929h-90.23674011c-10.61654664 0-20.44244385-5.61114502-25.83755494-14.75463867l-44.5485382-75.5c-5.54995728-9.40590668-5.54995728-21.08480072 0-30.49075318l44.54859924-75.5c5.39509582-9.14349365 15.22099304-14.75459289 25.83753967-14.75459289z" fill="#0883c0"/>
    </g>
    <g fill="#ebb951" transform="matrix(0 -1 1 0 267 507)">
      <path d="m169.61837769 201h-90.23678589c-7.04475403 0-13.64500428-3.76907349-17.22504425-9.83641052l-44.54854012-75.5c-3.69908333-6.26912689-3.69908333-14.05803681 0-20.3271637l44.54858208-75.50000191c3.58004379-6.06733322 10.18029403-9.83641624 17.22504043-9.83641624h90.23674775c7.0447998 0 13.64505004 3.76908302 17.22505188 9.83641624l44.54858398 75.50000191c3.69908142 6.26912689 3.69908142 14.05803681 0 20.3271637l-44.54858398 75.5c-3.58000184 6.06733703-10.18025208 9.83641052-17.22505188 9.83641052z"/>
      <path d="m79.38165283 20.00001526c-3.5223999 0-6.82254028 1.88453674-8.61248779 4.91819763l-44.5486145 75.49994659c-1.84954834 3.13459778-1.84954834 7.02904511 0 10.16359711l44.54855346 75.5c1.79000855 3.03370667 5.09010315 4.91824341 8.61250306 4.91824341h90.23674011c3.5223999 0 6.8225708-1.88453674 8.61251831-4.91819763l44.54858398-75.4999466c1.8495636-3.13459777 1.8495636-7.02909851 0-10.16365051l-44.54858398-75.49999237c-1.78994751-3.03366089-5.09011841-4.91819763-8.61251831-4.91819763zm0-20h90.23669434c10.61656189 0 20.4424591 5.61109924 25.83755493 14.75459289l44.54859924 75.5c5.54995728 9.40595246 5.54995728 21.0848465 0 30.49079895l-44.54859924 75.5c-5.39509583 9.14344788-15.22099304 14.7545929-25.83755493 14.7545929h-90.23674011c-10.61654664 0-20.44244385-5.61114502-25.83755494-14.75463867l-44.5485382-75.5c-5.54995728-9.40590668-5.54995728-21.08480072 0-30.49075318l44.54859924-75.5c5.39509582-9.14349365 15.22099304-14.75459289 25.83753967-14.75459289z" fill="#fcd804"/>
    </g>
    <g fill="#33ba91" transform="matrix(0 -1 1 0 34 507)">
      <path d="m169.61837769 201h-90.23678589c-7.04475403 0-13.64500428-3.76907349-17.22504425-9.83641052l-44.54854012-75.5c-3.69908333-6.26912689-3.69908333-14.05803681 0-20.3271637l44.54858208-75.50000191c3.58004379-6.06733322 10.18029403-9.83641624 17.22504043-9.83641624h90.23674775c7.0447998 0 13.64505004 3.76908302 17.22505188 9.83641624l44.54858398 75.50000191c3.69908142 6.26912689 3.69908142 14.05803681 0 20.3271637l-44.54858398 75.5c-3.58000184 6.06733703-10.18025208 9.83641052-17.22505188 9.83641052z"/>
      <path d="m79.38165283 20.00001526c-3.5223999 0-6.82254028 1.88453674-8.61248779 4.91819763l-44.5486145 75.49994659c-1.84954834 3.13459778-1.84954834 7.02904511 0 10.16359711l44.54855346 75.5c1.79000855 3.03370667 5.09010315 4.91824341 8.61250306 4.91824341h90.23674011c3.5223999 0 6.8225708-1.88453674 8.61251831-4.91819763l44.54858398-75.4999466c1.8495636-3.13459777 1.8495636-7.02909851 0-10.16365051l-44.54858398-75.49999237c-1.78994751-3.03366089-5.09011841-4.91819763-8.61251831-4.91819763zm0-20h90.23669434c10.61656189 0 20.4424591 5.61109924 25.83755493 14.75459289l44.54859924 75.5c5.54995728 9.40595246 5.54995728 21.0848465 0 30.49079895l-44.54859924 75.5c-5.39509583 9.14344788-15.22099304 14.7545929-25.83755493 14.7545929h-90.23674011c-10.61654664 0-20.44244385-5.61114502-25.83755494-14.75463867l-44.5485382-75.5c-5.54995728-9.40590668-5.54995728-21.08480072 0-30.49075318l44.54859924-75.5c5.39509582-9.14349365 15.22099304-14.75459289 25.83753967-14.75459289z" fill="#0fa88a"/>
    </g>
    <g fill="#fff">
      <path d="m96.91 229.815v-127.115h26.6v46.3h44.117v-46.3h26.673v127.115h-26.678v-55.582h-44.116v55.582z" transform="translate(-3.91 -36.696)"/>
      <path d="m1282.548 99.15a65.341 65.341 0 1 1 -65.345 65.341 65.376 65.376 0 0 1 65.345-65.341zm0 24.275a41.062 41.062 0 1 1 -.009 0z" fill-rule="evenodd" transform="translate(-910.203 217.85)"/>
      <path d="m961.994 163.486c0 28.947-5.486 37.38-16.45 49.434s-25.5 16.911-43.616 16.911c-16.557 0-29.906-5.874-41.475-16.091-12.809-11.316-22.133-28.855-22.133-48.429 0-19.244 7.19-35.878 19.931-48.264 11.177-10.838 27.814-17.9 44.972-17.9a67.369 67.369 0 0 1 55.477 29.159l-19.465 16.453c-8.251-15.355-20.207-20.526-37.31-21.017-18.913-.54-39.733 17.5-38.187 41.561.859 13.459 7.147 36.592 37.4 40.837 15.895 2.227 33.961-14.735 33.961-23.949h-29.864v-23h56.749v4.283z" transform="translate(-760.319 217.851)"/>
      <path d="m477.308 109.381h25.942v68.809q0 16.379.9 21.232c1.037 5.2 2.953 8.813 6.857 11.962s8.463 4.04 15.233 4.04c6.879 0 9.182-1.065 12.676-4.041s5.595-5.809 6.306-10.146a125.655 125.655 0 0 0 1.883-21.581v-70.276h25.937v66.731q0 22.877-1.969 32.323a34.62 34.62 0 0 1 -21.379 26.3q-8.852 3.857-23.1 3.857-17.2 0-26.084-4.2a37.544 37.544 0 0 1 -14.048-10.919 35.779 35.779 0 0 1 -6.8-14.083q-2.374-10.918-2.38-32.238v-67.769z" transform="translate(-152.289 -44.38)"/>
    </g>
  </g>
</svg>