<svg xmlns="http://www.w3.org/2000/svg" width="256" height="256" viewBox="0 0 100 100"><rect width="100" height="100" rx="20" fill="#152c46"></rect><path fill="#f8fcff" d="M15.93 55.92L51.16 9.00Q53.06 8.45 55.58 8.04Q58.09 7.64 60.00 7.64L60.00 7.64Q62.31 7.64 64.48 8.11Q66.66 8.59 68.36 9.68Q70.06 10.76 71.08 12.67Q72.10 14.57 72.10 17.43L72.10 17.43L72.10 59.18L84.20 59.18Q84.88 60.27 85.43 62.10Q85.97 63.94 85.97 65.98L85.97 65.98Q85.97 69.65 84.27 71.42Q82.57 73.19 79.72 73.19L79.72 73.19L72.10 73.19L72.10 91.28Q71.01 91.55 68.84 91.96Q66.66 92.36 64.48 92.36L64.48 92.36Q60.13 92.36 57.68 91.00Q55.24 89.64 55.24 85.02L55.24 85.02L55.24 73.19L19.60 73.19Q17.29 72.10 15.66 69.58Q14.03 67.07 14.03 63.53L14.03 63.53Q14.03 61.63 14.44 59.59Q14.84 57.55 15.93 55.92L15.93 55.92ZM55.92 59.18L56.05 25.18L55.78 25.18L32.39 59.18L55.92 59.18Z"></path></svg>