<svg xmlns="http://www.w3.org/2000/svg" xmlns:xlink="http://www.w3.org/1999/xlink" xml:space="preserve" width="24" height="24"><defs><circle id="a" cx="12" cy="12" r="12"/></defs><clipPath id="b"><use xlink:href="#a" overflow="visible"/></clipPath><g clip-path="url(#b)"><path fill="#FFF" d="M-11.1-3.3h46.2v30h-46.2z"/><path fill="#3954A3" d="m-3.1 3.5 8.5 5.7h-9.3l.8-5.7zM9.5-.3-1.2.7 9.5 7.9V-.3zm18.9 2.8-9.9 6.7h10.7l-.8-6.7zm-14 5.4L25.1.8 14.4-.6v8.5zm-16 11 7-4.7h-7v4.7zm11.1-3.5-7.6 5.1 7.6 4.6v-9.7zm16-1.3h-7l7 4.7v-4.7zM14.4 24.8l7.6-4.3-7.6-5.1v9.4z"/><path fill="#EB2227" d="M27.2 13.2H13.7v13.5h-3.3V13.2H-3.9v-3h14.3V-.9h3.3v11.1h13.6v3zm-28.8-10 9.1 6H9L-1.1 2.5l-.5.3v.4zm27.1-.4L27.2.9 14.8 9.2h1.6l9.1-6v-.4zM-1.6 20.5h1L9 14.1H7.5l-9.1 6v.4zm27.1-.4-9.1-6h-1.6l9.6 6.4h1v-.4z"/></g></svg>