<svg xmlns="http://www.w3.org/2000/svg" xml:space="preserve" width="24" height="24"><path fill="#ED2224" d="M23.3 8H.7C1.9 4.6 4.6 1.9 8 .7 9.3.2 10.6 0 12 0s2.7.2 4 .7c3.4 1.2 6.1 3.9 7.3 7.3z"/><path fill="#2D3188" d="M23.3 16c-1.2 3.4-3.9 6.1-7.3 7.3-1.3.4-2.6.7-4 .7s-2.7-.2-4-.7C4.6 22.1 1.9 19.4.7 16h22.6z"/><path fill="#FFF" d="M24 12c0 1.4-.2 2.7-.7 4H.7c-.5-1.3-.7-2.6-.7-4s.2-2.7.7-4h22.6c.5 1.3.7 2.6.7 4z"/><path fill="#ED2224" d="M7.6 8.3v5.8c0 .4.2.8.3 1.2.1.2.3.5.4.7h1v-3.9h3.5v-1.9h3.6V8.3H7.6zm0 0v5.8c0 .4.2.8.3 1.2.1.2.3.5.4.7.2.2.3.4.5.6.2.2.4.4.6.5.3.2.6.4.9.5.3.1.5.2.8.3V16H9.4v-3.9h3.5v-1.9h3.6V8.3H7.6zm4.3 9.7h.2-.2zM7.6 8.3v5.8c0 .4.2.8.3 1.2.1.2.3.5.4.7.2.2.3.4.5.6.2.2.4.4.6.5.3.2.6.4.9.5.3.1.5.2.8.3.2 0 .5.1.8.1h.2c.3 0 .5 0 .8-.1V16H9.4v-3.9h3.5v-1.9h3.6V8.3H7.6zm0 0v5.8c0 .4.2.8.3 1.2.1.2.3.5.4.7.2.2.3.4.5.6.2.2.4.4.6.5.3.2.6.4.9.5.3.1.5.2.8.3.2 0 .5.1.8.1h.2c.3 0 .5 0 .8-.1.3-.1.6-.1.8-.3.3-.1.6-.3.9-.5.2-.1.3-.3.5-.4.2-.2.4-.4.5-.6.2-.2.3-.5.4-.7.2-.4.3-.8.3-1.2V8.3H7.6zm0 0v5.8c0 .4.2.8.3 1.2.1.2.3.5.4.7.2.2.3.4.5.6.2.2.4.4.6.5.3.2.6.4.9.5.3.1.5.2.8.3.2 0 .5.1.8.1h.2c.3 0 .5 0 .8-.1.3-.1.6-.1.8-.3.3-.1.6-.3.9-.5.2-.1.3-.3.5-.4.2-.2.4-.4.5-.6.2-.2.3-.5.4-.7.2-.4.3-.8.3-1.2V8.3H7.6zm0 0v5.8c0 .4.2.8.3 1.2.1.2.3.5.4.7.2.2.3.4.5.6.2.2.4.4.6.5.3.2.6.4.9.5.3.1.5.2.8.3.2 0 .5.1.8.1h.2c.3 0 .5 0 .8-.1.3-.1.6-.1.8-.3.3-.1.6-.3.9-.5.2-.1.3-.3.5-.4.2-.2.4-.4.5-.6.2-.2.3-.5.4-.7.2-.4.3-.8.3-1.2V8.3H7.6zm0 0v5.8c0 .4.2.8.3 1.2.1.2.3.5.4.7.2.2.3.4.5.6.2.2.4.4.6.5.3.2.6.4.9.5.3.1.5.2.8.3.2 0 .5.1.8.1h.2c.3 0 .5 0 .8-.1.3-.1.6-.1.8-.3.3-.1.6-.3.9-.5.2-.1.3-.3.5-.4.2-.2.4-.4.5-.6.2-.2.3-.5.4-.7.2-.4.3-.8.3-1.2V8.3H7.6zm0 0v5.8c0 .4.2.8.3 1.2.1.2.3.5.4.7.2.2.3.4.5.6.2.2.4.4.6.5.3.2.6.4.9.5.3.1.5.2.8.3.2 0 .5.1.8.1h.2c.3 0 .5 0 .8-.1.3-.1.6-.1.8-.3.3-.1.6-.3.9-.5.2-.1.3-.3.5-.4.2-.2.4-.4.5-.6.2-.2.3-.5.4-.7.2-.4.3-.8.3-1.2V8.3H7.6zm0 0v5.8c0 .4.2.8.3 1.2.1.2.3.5.4.7.2.2.3.4.5.6.2.2.4.4.6.5.3.2.6.4.9.5.3.1.5.2.8.3.2 0 .5.1.8.1h.2c.3 0 .5 0 .8-.1.3-.1.6-.1.8-.3.3-.1.6-.3.9-.5.2-.1.3-.3.5-.4.2-.2.4-.4.5-.6.2-.2.3-.5.4-.7.2-.4.3-.8.3-1.2V8.3H7.6zm0 0v5.8c0 .4.2.8.3 1.2.1.2.3.5.4.7.2.2.3.4.5.6.2.2.4.4.6.5.3.2.6.4.9.5.3.1.5.2.8.3.2 0 .5.1.8.1h.2c.3 0 .5 0 .8-.1.3-.1.6-.1.8-.3.3-.1.6-.3.9-.5.2-.1.3-.3.5-.4.2-.2.4-.4.5-.6.2-.2.3-.5.4-.7.2-.4.3-.8.3-1.2V8.3H7.6zm0 0v5.8c0 .4.2.8.3 1.2.1.2.3.5.4.7.2.2.3.4.5.6.2.2.4.4.6.5.3.2.6.4.9.5.3.1.5.2.8.3.2 0 .5.1.8.1h.2c.3 0 .5 0 .8-.1.3-.1.6-.1.8-.3.3-.1.6-.3.9-.5.2-.1.3-.3.5-.4.2-.2.4-.4.5-.6.2-.2.3-.5.4-.7.2-.4.3-.8.3-1.2V8.3H7.6zm0 0v5.8c0 .4.2.8.3 1.2.1.2.3.5.4.7.2.2.3.4.5.6.2.2.4.4.6.5.3.2.6.4.9.5.3.1.5.2.8.3.2 0 .5.1.8.1h.2c.3 0 .5 0 .8-.1.3-.1.6-.1.8-.3.3-.1.6-.3.9-.5.2-.1.3-.3.5-.4.2-.2.4-.4.5-.6.2-.2.3-.5.4-.7.2-.4.3-.8.3-1.2V8.3H7.6zm0 0v5.8c0 .4.2.8.3 1.2.1.2.3.5.4.7.2.2.3.4.5.6.2.2.4.4.6.5.3.2.6.4.9.5.3.1.5.2.8.3.2 0 .5.1.8.1h.2c.3 0 .5 0 .8-.1V16H9.4v-3.9h3.5v-1.9h3.6V8.3H7.6zm0 0v5.8c0 .4.2.8.3 1.2.1.2.3.5.4.7.2.2.3.4.5.6.2.2.4.4.6.5v-4.9h3.5v-1.9h3.6v-2H7.6zm0 0v5.8h1.7v-1.9h3.5v-1.9h3.6v-2H7.6z"/><path fill="#ED2224" d="M7.3 8v5.5c0 .5.1 1.1.3 1.5.1.4.3.7.4 1 .3.5.8 1 1.3 1.4.3.2.7.4 1.1.6.5.2 1 .3 1.5.3s1.1-.1 1.5-.3c.4-.1.8-.3 1.1-.6.5-.4 1-.8 1.3-1.4.2-.3.3-.6.4-.9.2-.5.3-1 .3-1.5V8H7.3zm9.3 5.6c0 .4-.1.8-.2 1.3-.1.2-.1.4-.2.5-.1.2-.2.5-.4.7-.2.3-.4.5-.6.8-.2.2-.4.4-.6.5-.3.2-.6.3-.9.5-.2.1-.3.1-.5.2-.4.1-.8.2-1.3.2-.4 0-.9-.1-1.3-.2-.2-.1-.4-.1-.5-.2-.3-.1-.6-.3-.9-.5-.2-.1-.4-.3-.6-.5-.2-.2-.4-.5-.6-.8-.1-.2-.3-.4-.4-.7-.1-.2-.1-.4-.2-.5-.1-.4-.2-.8-.2-1.3V8.1h9.2v5.5z"/><path fill="#FFF" d="M7.4 8.1v5.5c0 .4.1.8.2 1.3.1.2.1.4.2.5l.3.6c.2.3.4.5.6.8.2.2.4.4.6.5.3.2.6.3.9.5.2.1.3.1.5.2.4.1.8.2 1.3.2.4 0 .9-.1 1.3-.2.2-.1.4-.1.5-.2.3-.1.6-.3.9-.5.2-.1.4-.3.6-.5.2-.2.4-.5.6-.8.1-.2.3-.4.4-.7.1-.2.1-.4.2-.5.1-.4.2-.8.2-1.3V8.1H7.4zm9 5.5v.5c0 .4-.2.8-.3 1.2-.1.3-.2.5-.4.7-.2.2-.3.4-.5.6-.1.1-.3.3-.5.4-.3.2-.6.4-.9.5-.3.1-.5.2-.8.3-.2 0-.5.1-.8.1H12c-.3 0-.5 0-.8-.1-.3-.1-.6-.1-.8-.3-.3-.1-.6-.3-.9-.5-.3 0-.5-.2-.6-.3-.2-.2-.4-.4-.5-.6-.2-.2-.3-.5-.4-.7-.2-.4-.3-.8-.3-1.2V8.3h8.8v5.3zm0-5.3v5.8c0 .4-.2.8-.3 1.2-.1.3-.2.5-.4.8-.2.2-.3.4-.5.6-.1.1-.3.3-.5.4-.3.2-.6.4-.9.5-.3.1-.5.2-.8.3-.2 0-.5.1-.8.1H12c-.3 0-.5 0-.8-.1-.3-.1-.6-.1-.8-.3-.3-.1-.6-.3-.9-.5-.3-.1-.5-.3-.6-.4-.2-.2-.4-.4-.5-.6-.2-.2-.3-.5-.4-.8-.2-.4-.3-.8-.3-1.2V8.3h8.7zm-8.8 0v5.8c0 .4.2.8.3 1.2.1.3.2.5.4.8.2.2.3.4.5.6.2.1.4.3.6.4.3.2.6.4.9.5.3.1.5.2.8.3.2 0 .5.1.8.1h.2c.3 0 .5 0 .8-.1.3-.1.6-.1.8-.3.3-.1.6-.3.9-.5.2-.1.3-.3.5-.4.2-.2.4-.4.5-.6.2-.2.3-.5.4-.8.2-.4.3-.8.3-1.2V8.3H7.6z"/><path fill="#FFF" d="M11.1 8.3v1.9H9.4V8.3h1.7zm1.8 0v1.9h1.8V8.3h-1.8z"/><path fill="#ED2224" d="M9.4 8.3v1.9H7.6V8.3h1.8zm1.7 0v1.9h1.8V8.3h-1.8zm3.5 0v1.9h1.8V8.3h-1.8z"/><path fill="#ED2224" d="M11.1 12.1H9.4v-1.9h1.8v1.9zm3.5-1.9h-1.8v1.9h1.8v-1.9z"/><path fill="#FFF" d="M9.4 10.2v1.9H7.6v-1.9h1.8zm3.5 0h-1.8v1.9h1.8v-1.9zm1.7 0v1.9h1.8v-1.9h-1.8zM11.1 14.1H9.4v-1.9h1.8v1.9zm3.5-2h-1.8V14h1.8v-1.9z"/><path fill="#ED2224" d="M9.4 12.1V14H7.6v-1.9h1.8zm3.5 0h-1.8V14h1.8v-1.9zm1.7 0V14h1.7v-1.9h-1.7zM11.1 16H9.4v-1.9h1.8V16zm3.5-1.9h-1.8V16h1.8v-1.9z"/><path fill="#FFF" d="M9.4 14.1V16h-1c-.2-.2-.3-.5-.4-.8-.2-.4-.3-.8-.3-1.2h1.7zm3.5 0h-1.8V16h1.8v-1.9zm1.7 0V16h1c.2-.2.3-.5.4-.8.2-.4.3-.8.3-1.2h-1.7zM11.1 16v1.9c-.3-.1-.6-.1-.8-.3-.3-.1-.6-.3-.9-.5V16h1.7zm1.8 0v1.9c.3-.1.6-.1.8-.3.3-.1.6-.3.9-.5V16h-1.7z"/><path fill="#ED2224" d="M9.4 16v1.1c-.2-.1-.4-.3-.5-.4-.2-.2-.4-.4-.5-.6h1zm1.7 0v1.9c.2 0 .5.1.8.1h.3c.3 0 .5 0 .8-.1V16h-1.9zm3.5 0v1.1c.2-.1.3-.3.5-.4.2-.2.4-.4.5-.6h-1z"/><path fill="#2492D0" d="m17.5 5.4-.5 1-.1-.1c-.5-.3-1.1-.5-1.7-.6h-.1l.3-1.1 1.3-.5.8 1.3zm-2.6 1.2-.2.8.9.3c.3.1.6.2.8.3l.3-.8c-.5-.3-1.2-.5-1.8-.6z"/><path fill="#ED2224" d="M15.1 6H15l-.1.4c.6.1 1.2.3 1.8.6l.3-.4h-.1c-.6-.3-1.2-.5-1.8-.6zM10.9 5l-1 .2-1.1.2-.1-.7.3-.1c.5-.1 1-.2 1.6-.2h.3V5zm.1.7h-.1c-.6 0-1.1.1-1.7.3H9l.1.6 1-.2.9-.1v-.6z"/><path fill="#2D3188" d="m10.9 4.4-1.1.1-1.1.2 1-1.1 1.2.8zm0 .6h-.2c-.5 0-1.1.1-1.6.2l-.3.2.2.6 1-.2 1-.1-.1-.7zm.2 2c-.3 0-.6.1-.8.1-.3.1-.7.1-1 .2l-.2-.7h.1c.6-.2 1.2-.2 1.8-.3l.1.7zM15.3 4.7l-.6 2.6-1.8-.3.2-2.7 1.2-.7 1 1.1z"/><path fill="#2492D0" d="M13.1 4.4 12.9 7h-1.8l-.2-2.7 1.1-.8 1.1.9zm-4.4.3-1.4-.5-.8 1.2 1 2.5c.5-.2 1.1-.4 1.7-.6l-.5-2.6z"/><path fill="#FFF" d="m17.5 5.4-.8-1.2h-.1l-1.3.5-.9-1h-.1l-1.2.7-1.1-1h-.1l-1.1.9-1.1-.7h-.1l-.9 1-1.4-.5h-.1l-.7 1.3 1 2.5c.5-.2 1.1-.4 1.7-.6L11 7h1.8l1.8.3c.6.1 1.2.3 1.7.6l1.2-2.5zM16.8 7l-.1.2-.3.7c-.5-.2-1.1-.4-1.7-.6-.6-.2-1.2-.3-1.8-.3h-1.8c-.6 0-1.2.1-1.8.3-.6.1-1.2.3-1.7.6l-1-2.5.8-1.2 1.3.5.9-1 1.1.7h.1l1.2-.9 1.1.9 1.2-.7.9 1 1.3-.5.8 1.2-.4 1-.1.2V7z"/><path fill="#F6DA24" d="m8.1 5.4-.2-.1L8 5l-.2.1-.2-.1v.2l-.3.1.2.2v.2l.2-.1.2.2v-.2l.2-.2z"/><path fill="#010101" d="m8.1 5.4-.2-.1L8 5l-.2.1-.2-.1v.2l-.3.1.2.2v.2l.2-.1.2.2v-.2l.2-.2zm-.2-.1h-.2l.3-.2-.1.2zm-.1-.2H8l-.3.2.1-.2zm0 0v.2L7.6 5l.2.1zM7.6 5l.1.4-.2-.2.1-.2zm-.1.2.2.1h-.4l.2-.1zm-.2.1.4.1h-.2l-.2-.1zm.2.1.2-.1-.2.3v-.2zm.2.2h-.2l.2-.3v.3zm0 0v-.2l.1.4-.1-.2zm.1.1-.1-.3.2.1-.1.2zm.1-.2-.2-.1.4.1h-.2zm-.2-.2.2-.1.2.1h-.4z"/><path fill="#FFF" d="M8.6 5.9V6c0 .4-.3.7-.7.7-.3 0-.5-.1-.6-.4.1.4.4.6.7.6.4 0 .7-.3.7-.7 0-.1 0-.2-.1-.3z"/><path fill="#F6DA24" d="m16.7 5.3-.2-.1V5l-.2.2-.2-.2v.2l-.2.2.2.1v.2l.2-.2.2.1v-.2l.2-.1z"/><path fill="#010101" d="m16.7 5.3-.2-.1V5l-.2.2-.2-.2v.2l-.2.2.2.1v.2l.2-.2.2.1v-.2l.2-.1zm0 0-.4.1.2-.1h.2zm-.2-.3v.2l-.2.1.2-.3zm-.1 0-.1.4v-.2l.1-.2zm-.1.1v.2l-.2-.3.2.1zm-.2 0 .2.3-.2-.1v-.2zm0 .2.2.1-.4.1.2-.2zm-.2.1.4-.1-.2.1h-.2zm.3.3v-.2l.2-.1-.2.3zm0 0 .1-.4v.2l-.1.2zm.2-.1v-.2l.2.3-.2-.1zm.2 0-.2-.3.2.1v.2zm-.1-.2-.2-.1.4-.1-.2.2zM15.4 6.1s-.1 0 0 0h-.1l.1.1.1.1h-.2s0 .1.1.1h.2c.1 0 .1.1.1.1h-.2s0 .1.1.1h.4-.1s0 .1.1.1H16.3s.1.1.2.1v.1s-.1 0 0 .1h.1v-.4h.1c.1 0 .1.1.2.1s.1 0 .1-.1c0 0-.1-.1-.2-.1s-.2 0-.2-.1c-.1 0-.1-.1-.2-.1h-.3c-.1 0-.2-.1-.2-.1h-.1v-.1h-.4z"/><path fill="#FFF" d="M15.9 6.5h.1s.1 0 .2.1c-.1-.1-.2-.1-.3-.1-.1 0 0 0 0 0z"/><path fill="#F6DA24" d="M11.8 5.2s0-.1 0 0c.1-.1.1-.2.1-.2h-.1c.1 0 .1-.1.1-.2h-.2s.1-.1.1-.2H11.5l-.1-.1-.1.1s-.1-.1-.1 0H11c0 .1.1.1.1.2h-.2c0 .1 0 .1.1.2h-.1s0 .1.1.1v.1h.1v.1h.1v.1h.1v.2-.2h.1v-.1h.1v-.1c.3.1.4.1.3 0 .1.1.1 0 0 0 .1 0 .1 0 0 0 .1 0 .1 0 0 0z"/><g fill="#010101"><path d="M11.8 5.2s0-.1 0 0c.1-.1.1-.2.1-.2h-.1c.1 0 .1-.1.1-.2h-.2s.1-.1.1-.2H11.5l-.1-.1-.1.1s-.1-.1-.1 0H11c0 .1.1.1.1.2h-.2c0 .1 0 .1.1.2h-.1s0 .1.1.1v.1h.1v.1h.1v.1h.1v.2-.2h.1v-.1h.1v-.1c.3.1.4.1.3 0 .1.1.1 0 0 0 .1 0 .1 0 0 0 .1 0 .1 0 0 0zm0 .1c-.1-.1-.1-.1 0 0-.1-.1-.1-.1 0 0-.1 0-.1 0 0 0-.1 0 0 0 0 0l-.1.1v.1h-.1v.1-.1h-.1v-.1h-.1v-.1h-.1s0-.1.1-.1c-.1 0-.1-.1-.1-.1h.1c-.1 0-.1-.1-.1-.2h.1s-.1-.1-.1-.2h.2l.1-.1.1.1c0-.1.1-.1.1 0h.1c-.1.1-.1.2-.1.2h.1c0 .1 0 .1-.1.2h.1s0 .1-.1.1v.1c0-.1 0-.1 0 0 .1 0 0 0 0 0z"/><path d="M11.5 5c-.1-.1-.1-.1 0 0l-.1-.1c-.1 0 0 0 .1.1-.1-.1-.1 0 0 0zM11.5 5.1s-.1 0 0 0c-.1 0 0 0 0 0zM11.5 5.3s-.1-.1 0 0c-.1-.1-.1-.1 0 0-.1-.1-.1-.1 0 0-.1 0-.1 0 0 0zM11.5 5.3h-.1.1zM11.5 5h.1s0-.1-.1 0z"/><path d="M11.7 5s-.1 0 0 0h-.1v-.1.1h-.1.1s0 .1.1.1c-.1 0-.1-.1 0-.1-.1 0-.1 0 0 0zm-.3.1c0-.1 0-.1 0 0 0-.1 0-.1 0 0 0-.1 0-.1 0 0zm.2 0c0-.1 0-.1 0 0 0-.1 0-.1 0 0 0-.1 0-.1 0 0zM11.6 5.3c-.1 0-.1 0 0 0-.1 0-.1 0 0 0-.1 0-.1 0 0 0v-.1c-.1 0-.1 0 0 .1l-.1-.1c-.1 0 0 .1.1.1-.1 0-.1 0 0 0-.1 0-.1 0 0 0h-.1.1c-.1 0-.1 0 0 0-.1 0-.1 0 0 0-.1 0-.1 0 0 0-.1 0-.1 0 0 0-.1.1-.1.1 0 0-.1.1-.1.1 0 0-.1.1-.1.1 0 0-.1.1-.1.1 0 0-.1.1-.1.1 0 0-.1 0-.1 0 0 0-.1 0-.1 0 0 0-.1 0 0 0 0 0z"/><path d="M11.6 5.2s-.1.1 0 0c-.1.1-.1.1 0 0-.1.1-.1.1 0 0-.1.1-.1.1 0 0 0 .1 0 .1 0 0zM11.6 5.3h-.1.1zM11.7 4.9h-.4.2c.1-.1.1 0 .2 0zM11.7 4.8h-.4.4c0 .1 0 0 0 0zM11.7 4.8h-.5.5zM11.7 4.8h-.4.4zM11.5 4.6c-.1.1-.1.1 0 0 0 .1 0 .1 0 0 0 .1 0 .1 0 0 0 .1 0 .1 0 0 0 .1 0 .1 0 0zm0 .1z"/></g><path fill="#010101" d="M11.8 5c0-.1 0-.1 0 0 0-.1 0-.1 0 0 0-.1 0-.1 0 0 0-.1 0-.1 0 0zM11.3 4.9s-.1 0 0 0h-.1.1c-.1 0 0 0 0 0zM11.2 4.9zM11.2 5s0-.1 0 0c0-.1 0-.1 0 0 0-.1 0-.1 0 0 0-.1 0 0 0 0zM11.2 5.1s-.1 0 0 0c-.1 0-.1 0 0 0 0-.1 0-.1 0 0h.1-.1zM11.2 5.1c.1 0 .1 0 0 0 .1 0 .1 0 0 0 .1 0 .1 0 0 0 .1 0 .1 0 0 0zM11.2 5.2s0-.1 0 0c0-.1.1-.1 0 0 .1-.1.1-.1 0 0 .1-.1.1-.1 0 0 .1-.1 0-.1 0 0z"/><path fill="#010101" d="m11.2 5.2.1-.1s0 .1-.1.1z"/><path fill="#010101" d="M11.2 5.2s.1 0 0 0c.1 0 .1-.1.1-.1 0 .1 0 .1-.1.1.1 0 0 0 0 0zM11.3 5.3c-.1 0-.1 0 0 0 0-.1 0-.1 0 0 0-.1 0-.1 0 0 0-.1 0-.1 0 0 0-.1 0 0 0 0zM11.3 5.3s0-.1 0 0c0-.1 0-.1 0 0 0-.1 0-.1 0 0 0-.1 0 0 0 0zM11.3 5.4s0-.1 0 0c0-.1 0-.1 0 0 .1-.1.1-.1 0 0 .1-.1.1-.1 0 0 .1-.1 0-.1 0 0 0-.1 0 0 0 0zM11.3 5.4s.1 0 0 0c.1-.1.1-.1 0 0 .1-.1.1-.1 0 0 .1-.1.1-.1 0 0 .1-.1.1-.1 0 0 .1 0 .1 0 0 0zM11.3 5.4c.1 0 .1 0 0 0 .1 0 .1 0 0 0 .1 0 .1 0 0 0 .1 0 .1 0 0 0 .1 0 .1 0 0 0 .1 0 .1 0 0 0zM11.7 4.9h.1-.1zM11.7 4.9s.1 0 0 0c.1 0 .1-.1.1-.1 0 .1 0 .1-.1.1.1 0 0 0 0 0zM11.8 5h-.1.1zM11.7 5.1c.1 0 .1 0 0 0 .1 0 .1 0 0 0 .1-.1.1 0 0 0 .1 0 .1 0 0 0 .1 0 .1 0 0 0 .1 0 .1 0 0 0zM11.7 5.1s.1 0 0 0c.1 0 .1 0 0 0 .1 0 .1 0 0 0 .1 0 .1 0 0 0 .1 0 .1 0 0 0 .1 0 0 0 0 0zM11.8 5.2c-.1 0-.1 0 0 0-.1 0-.1 0 0 0-.1 0-.1 0 0 0-.1 0-.1 0 0 0zM11.8 5.2h-.1.1zM11.7 5.3zM11.7 5.3zM11.8 5.2s-.1 0 0 0c-.1-.1-.1-.1 0 0-.1-.1-.1-.1 0 0-.1-.1 0 0 0 0zM11.7 5.4c-.1 0-.1-.1 0 0-.1-.1-.1-.1 0 0-.1-.1-.1-.1 0 0-.1-.1-.1 0 0 0z"/><path fill="#010101" d="M11.7 5.4c-.1 0-.1 0 0 0-.1 0-.1 0 0 0-.1-.1-.1-.1 0 0-.1-.1-.1-.1 0 0-.1 0-.1 0 0 0-.1 0-.1 0 0 0zM11.6 5.4zM11.6 5.5c0-.1 0-.1 0 0-.1-.1-.1-.1 0 0 0-.1 0-.1 0 0 0-.1 0-.1 0 0zM11.5 5.5s0-.1 0 0c0-.1 0-.1 0 0 0-.1 0-.1 0 0 0-.1 0-.1 0 0 0-.1 0-.1 0 0 0-.1 0 0 0 0zM11.4 5.5s0-.1 0 0c0-.1 0-.1 0 0 0-.1 0-.1 0 0 0-.1 0-.1 0 0 0-.1 0-.1 0 0 0-.1 0 0 0 0zM11.5 5.5s0-.1 0 0c0-.1 0-.1 0 0 0-.1 0-.1 0 0 0-.1 0-.1 0 0 0-.1 0-.1 0 0 0-.1 0 0 0 0z"/><path fill="#F6DA24" d="M12.9 5.2s-.1-.1 0 0V5h-.1c.1 0 .1-.1.1-.2h-.2s.1-.1.1-.2H12.5l-.1-.1-.1.1s-.1-.1-.1 0H12c0 .1.1.1.1.2h-.2c0 .1 0 .1.1.2h-.1s0 .1.1.1v.1h.1v.1h.1v.1h.1v.2-.2h.1v-.1h.1c.3 0 .3 0 .4-.1-.1.1 0 .1 0 0 0 .1 0 0 0 0z"/><g fill="#010101"><path d="M12.9 5.2s-.1-.1 0 0V5h-.1c.1 0 .1-.1.1-.2h-.2s.1-.1.1-.2H12.5l-.1-.1-.1.1s-.1-.1-.1 0H12c0 .1.1.1.1.2h-.2c0 .1 0 .1.1.2h-.1s0 .1.1.1v.1h.1v.1h.1v.1h.1v.2-.2h.1v-.1h.1c.3 0 .3 0 .4-.1-.1.1 0 .1 0 0 0 .1 0 0 0 0zm-.1.1c-.1-.1-.1-.1 0 0-.1-.1-.1-.1 0 0-.1 0-.1 0 0 0l-.1.1v.1h-.1v.1-.1h-.1v-.1h-.1v-.1h-.1s0-.1.1-.1c-.1 0-.1-.1-.1-.1h.1c-.1 0-.1-.1-.1-.2h.1s-.1-.1-.1-.2h.2l.1-.1.1.1c0-.1.1-.1.1 0h.1c-.1.1-.1.2-.1.2h.1c0 .1 0 .1-.1.2h.1s0 .1-.1.1v.1c.1-.1.1-.1 0 0 .1 0 0 0 0 0z"/><path d="M12.5 5c-.1-.1-.1-.1 0 0l-.1-.1.1.1c-.1-.1-.1 0 0 0zM12.5 5.1zM12.5 5.3s-.1-.1 0 0c-.1-.1-.1-.1 0 0-.1-.1-.1-.1 0 0-.1 0-.1 0 0 0zM12.5 5.3h-.1.1zM12.5 5h.1c0-.1 0-.1-.1 0z"/><path d="M12.7 5h-.1v-.1.1h-.1.1s0 .1.1.1c-.1 0-.1-.1 0-.1-.1 0-.1 0 0 0zm-.3.1c0-.1 0-.1 0 0 0-.1 0-.1 0 0 0-.1 0-.1 0 0zm.2 0c0-.1 0-.1 0 0 0-.1 0-.1 0 0 0-.1 0-.1 0 0zM12.6 5.3s-.1 0 0 0c-.1 0-.1 0 0 0-.1 0-.1 0 0 0v-.1s-.1 0 0 .1l-.1-.1s0 .1.1.1c-.1 0-.1 0 0 0-.1 0-.1 0 0 0h-.1.1c-.1 0-.1 0 0 0-.1 0-.1 0 0 0-.1 0-.1 0 0 0-.1 0-.1 0 0 0-.1.1-.1.1 0 0-.1.1-.1.1 0 0-.1.1-.1.1 0 0-.1.1-.1.1 0 0-.1.1-.1.1 0 0-.1 0-.1 0 0 0-.1 0 0 0 0 0z"/><path d="M12.6 5.2s-.1.1 0 0c-.1.1-.1.1 0 0-.1.1-.1.1 0 0-.1.1-.1.1 0 0 0 .1 0 .1 0 0zM12.6 5.3h-.1.1zM12.7 4.9h-.4.2c.1-.1.1 0 .2 0zM12.7 4.8h-.4.4c0 .1 0 0 0 0zM12.8 4.8h-.5.5zM12.7 4.8h-.4.4zM12.5 4.6c0 .1 0 .1 0 0 0 .1 0 .1 0 0 0 .1 0 .1 0 0 0 .1 0 .1 0 0zm0 .1z"/></g><path fill="#010101" d="M12.8 5c0-.1 0-.1 0 0 0-.1 0-.1 0 0 0-.1 0-.1 0 0 0-.1 0-.1 0 0zM12.3 4.9h-.1.1zM12.3 4.9c-.1 0-.1 0 0 0-.1 0-.1 0 0 0-.1 0-.1 0 0 0-.1 0-.1 0 0 0-.1 0-.1 0 0 0-.1 0-.1 0 0 0zM12.3 5c-.1 0-.1 0 0 0-.1 0-.1-.1 0 0-.1-.1-.1-.1 0 0-.1-.1-.1-.1 0 0-.1-.1-.1 0 0 0-.1 0-.1 0 0 0zM12.2 5.1c0-.1 0-.1 0 0h.1-.1zM12.2 5.1c.1 0 .1 0 0 0 .1 0 .1 0 0 0 .1 0 .1 0 0 0 .1 0 .1 0 0 0zM12.2 5.2s0-.1 0 0c.1-.1.1-.1 0 0 .1-.1.1-.1 0 0 .1-.1.1-.1 0 0 .1-.1.1-.1 0 0z"/><path fill="#010101" d="m12.2 5.2.1-.1s0 .1-.1.1z"/><path fill="#010101" d="M12.2 5.2c.1 0 .1 0 0 0 .1 0 .1-.1.1-.1 0 .1 0 .1-.1.1.1 0 .1 0 0 0zM12.3 5.3c0-.1 0-.1 0 0 0-.1 0-.1 0 0 0-.1 0-.1 0 0 0-.1 0 0 0 0zM12.3 5.3s.1-.1 0 0c.1-.1.1-.1 0 0 .1-.1.1-.1 0 0 .1-.1 0 0 0 0zM12.3 5.4s0-.1 0 0c.1-.1.1-.1 0 0 .1-.1.1-.1 0 0 .1-.1.1-.1 0 0 .1-.1.1-.1 0 0 .1-.1 0 0 0 0zM12.4 5.4c0-.1 0-.1 0 0 0-.1 0-.1 0 0 0-.1 0-.1 0 0 0-.1 0-.1 0 0zM12.4 5.4zM12.7 4.9s.1 0 0 0h.1-.1c.1 0 0 0 0 0zM12.7 4.9c.1 0 .1 0 0 0 .1 0 .1-.1.1-.1 0 .1 0 .1-.1.1.1 0 .1 0 0 0zM12.8 5zM12.8 5.1c0-.1 0 0 0 0 .1 0 0 0 0 0zM12.7 5.1c.1 0 .1 0 0 0 .1 0 .1 0 0 0 .1 0 .1 0 0 0 .1 0 .1 0 0 0 .1 0 .1 0 0 0 .1 0 .1 0 0 0zM12.8 5.2s-.1 0 0 0c-.1 0-.1 0 0 0-.1 0-.1 0 0 0-.1 0 0 0 0 0zM12.8 5.2h-.1.1zM12.7 5.3zM12.7 5.3zM12.8 5.2c-.1-.1-.1-.1 0 0-.1-.1-.1-.1 0 0 0-.1 0 0 0 0zM12.7 5.4s-.1-.1 0 0c-.1-.1-.1-.1 0 0-.1-.1-.1-.1 0 0 0-.1 0 0 0 0z"/><path fill="#010101" d="M12.7 5.4s-.1 0 0 0c-.1 0-.1 0 0 0-.1-.1-.1-.1 0 0-.1-.1-.1-.1 0 0-.1 0-.1 0 0 0-.1 0 0 0 0 0zM12.6 5.4zM12.6 5.5c0-.1 0-.1 0 0 0-.1 0-.1 0 0 0-.1 0-.1 0 0 0-.1 0-.1 0 0zM12.5 5.5s0-.1 0 0c0-.1 0-.1 0 0 0-.1 0-.1 0 0 0-.1 0-.1 0 0 0-.1 0-.1 0 0 0-.1 0 0 0 0zM12.4 5.5s0-.1 0 0c0-.1 0-.1 0 0 0-.1 0-.1 0 0 0-.1 0-.1 0 0 0-.1 0-.1 0 0 0-.1 0 0 0 0zM12.5 5.5s0-.1 0 0c0-.1 0-.1 0 0 0-.1 0-.1 0 0 0-.1 0-.1 0 0 0-.1 0-.1 0 0 0-.1 0 0 0 0z"/><path fill="#F6DA24" d="M12.4 6.4c-.1-.1-.1-.1 0 0 .1-.1.1-.2.1-.2h-.1c.1 0 .1-.1.1-.2h-.2s.1-.1.1-.2H12.1l-.1-.1-.1.1s-.1-.1-.1 0h-.2c0 .1.1.1.1.2h-.2c0 .1 0 .1.1.2h-.1s0 .1.1.1v.1h.1v.1h.1v.1h.1v.2-.2h.1v-.1h.1v-.1h.3z"/><g fill="#010101"><path d="M12.4 6.4c-.1-.1-.1-.1 0 0 .1-.1.1-.2.1-.2h-.1c.1 0 .1-.1.1-.2h-.2s.1-.1.1-.2H12.1l-.1-.1-.1.1s-.1-.1-.1 0h-.2c0 .1.1.1.1.2h-.2c0 .1 0 .1.1.2h-.1s0 .1.1.1v.1h.1v.1h.1v.1h.1v.2-.2h.1v-.1h.1v-.1h.3zm-.1 0c-.1 0-.1 0 0 0-.1 0-.1 0 0 0-.1 0-.1 0 0 0 0 .1 0 .1 0 0l-.1.1v.1h-.1v.1-.1H12v-.1h-.1v-.1h-.1s0-.1.1-.1c-.1 0-.1-.1-.1-.1h.1c-.1 0-.1-.1-.1-.2h.1s-.1-.1-.1-.2h.2v-.1l.1.1c0-.1.1-.1.1 0h.1c0 .1-.1.2-.1.2h.1c0 .1 0 .1-.1.2h.1s0 .1-.1.1c.1 0 .1 0 .1.1 0 0 .1 0 0 0 .1 0 0 0 0 0z"/><path d="M12 6.2s0-.1 0 0c-.1-.1-.1-.1 0 0l-.1-.1.1.1c-.1-.1-.1-.1 0 0zM12 6.2s-.1.1 0 0c0 .1 0 .1 0 0 0 .1 0 .1 0 0 0 .1 0 .1 0 0 0 .1 0 0 0 0zM12 6.5c0-.1 0-.1 0 0 0-.1-.1-.1 0 0-.1-.1-.1-.1 0 0-.1-.1-.1-.1 0 0-.1-.1-.1-.1 0 0z"/><path d="m12 6.5-.1-.1v.1h.1zM12 6.2h.1c0-.1 0-.1-.1 0 0-.1 0 0 0 0z"/><path d="m12.2 6.1-.1.1v-.1.1H12h.1s0 .1.1.1c-.1-.1-.1-.1 0-.2-.1.1-.1.1 0 0 0 .1 0 0 0 0zm-.3.1zm.2 0zM12.1 6.5s-.1 0 0 0c-.1 0-.1 0 0 0-.1-.1-.1-.1 0 0v-.1s-.1 0 0 .1l-.1-.1c-.1 0 0 0 .1.1-.1-.1-.1-.1 0 0-.1 0-.1 0 0 0H12h.1c-.1 0-.1 0 0 0-.1 0-.1 0 0 0-.1 0-.1 0 0 0-.1 0-.1 0 0 0-.1 0-.1 0 0 0-.1 0-.1 0 0 0-.1 0-.1 0 0 0-.1 0-.1 0 0 0-.1 0-.1 0 0 0-.1 0-.1 0 0 0-.1 0-.1 0 0 0z"/><path d="M12.1 6.4s-.1 0 0 0c-.1 0-.1 0 0 0-.1.1-.1.1 0 0-.1.1-.1.1 0 0zM12.1 6.4l-.1.1h.1v-.1zM12.2 6h-.4.4zM12.2 6h-.4.4zM12.2 5.9h-.5.5zM12.2 5.9h-.4.4zM12 5.8c0 .1 0 .1 0 0 0 .1 0 .1 0 0zm0 0z"/></g><path fill="#010101" d="M12.3 6.1zM11.8 6.1h-.1c0-.1 0-.1.1 0z"/><path fill="#010101" d="M11.8 6.1c-.1 0-.1 0 0 0-.1 0-.1 0 0 0-.1 0-.1 0 0 0-.1-.1-.1-.1 0 0-.1 0-.1 0 0 0-.1 0-.1 0 0 0zM11.8 6.2c-.1 0-.1 0 0 0-.1-.1-.1-.1 0 0-.1-.1-.1-.1 0 0-.1-.1-.1-.1 0 0-.1-.1-.1-.1 0 0-.1-.1-.1 0 0 0zM11.7 6.2h.1-.1zM11.7 6.2c.1 0 .1 0 0 0 .1 0 .1 0 0 0 .1 0 .1 0 0 0 .1 0 .1 0 0 0zM11.7 6.3c.1 0 .1 0 0 0 .1 0 .1 0 0 0 .1 0 .1 0 0 0 .1 0 .1 0 0 0zM11.7 6.4l.1-.1-.1.1zM11.7 6.4c.1 0 .1 0 0 0 .1 0 .1-.1.1-.1l-.1.1c.1 0 .1 0 0 0zM11.8 6.5s0-.1 0 0c0-.1 0-.1 0 0 0-.1 0-.1 0 0 0-.1 0-.1 0 0 0-.1 0-.1 0 0 0-.1 0 0 0 0zM11.8 6.5s0-.1 0 0c0-.1 0-.1 0 0 0-.1.1-.1 0 0 .1-.1.1-.1 0 0 0-.1 0-.1 0 0 0-.1 0 0 0 0zM11.8 6.5c.1 0 .1 0 0 0 .1 0 .1 0 0 0 .1 0 .1 0 0 0 .1 0 .1 0 0 0zM11.9 6.5c-.1 0-.1 0 0 0zM11.8 6.6c.1 0 .1 0 0 0 .1-.1.1-.1 0 0 .1-.1.1-.1 0 0 .1-.1.1-.1 0 0 .1-.1.1 0 0 0 .1 0 .1 0 0 0zM12.2 6.1c0-.1.1-.1 0 0h.1c0-.1 0-.1-.1 0 .1-.1 0 0 0 0z"/><path fill="#010101" d="M12.2 6.1c.1 0 .1 0 0 0 .1 0 .1-.1.2-.1-.1 0-.1.1-.2.1.1 0 .1 0 0 0zM12.3 6.2h-.1.1zM12.3 6.2zM12.2 6.3c.1 0 .1 0 0 0 .1-.1.1-.1 0 0 .1-.1.1-.1 0 0 .1-.1.1-.1 0 0 .1-.1.1 0 0 0 .1 0 .1 0 0 0zM12.3 6.4c-.1 0-.1 0 0 0-.1-.1-.1-.1 0 0-.1-.1-.1-.1 0 0-.1-.1 0 0 0 0zM12.3 6.4h-.1.1zM12.2 6.5s0-.1 0 0c0-.1 0-.1 0 0 0-.1 0-.1 0 0 0-.1 0-.1 0 0zM12.2 6.5z"/><path fill="#010101" d="M12.3 6.4s0-.1 0 0c0-.1-.1-.1 0 0-.1-.1-.1-.1 0 0-.1-.1-.1-.1 0 0-.1-.1 0-.1 0 0 0-.1 0 0 0 0zM12.2 6.6c-.1-.1-.1-.1 0 0-.1-.1-.1-.1 0 0-.1-.1-.1-.1 0 0-.1-.1 0-.1 0 0z"/><path fill="#010101" d="M12.2 6.6c-.1 0-.1 0 0 0-.1-.1-.1-.1 0 0-.1-.1-.1-.1 0 0-.1-.1-.1-.1 0 0-.1-.1-.1-.1 0 0-.1 0-.1 0 0 0zM12.1 6.6c0-.1 0-.1 0 0 0-.1 0-.1 0 0 0-.1 0 0 0 0zM12.1 6.6zM12 6.6zM11.9 6.6zM12 6.6z"/><path fill="#F6DA24" d="M14.9 5.6s-.1 0 0 0h-.8v-.1h.1s.1 0 .1-.1h-.4v.1s0 .1-.1.1V6.4c0-.1.1-.1.1-.1V6.6h.1v-.1s0-.1.1-.1h.1v.2s0 .1-.1.1h.1v-.1s0-.1.1-.1v.1l-.1.1h.2v-.1s.1 0 .1-.1v-.2c.3-.6.3-.6.4-.7-.1.1-.1.1 0 0-.1.1 0 .1 0 0 0 .1 0 0 0 0z"/><path fill="#ED2224" d="M13.5 6.3c.1 0 0 .1 0 0 0 .1 0 .1 0 0l-.1.1c0-.1 0-.1.1-.1-.1 0-.1 0 0 0zm.1.1c-.1 0-.1.1 0 0-.1.1-.1.1 0 .1h.1l-.1-.1c.1.1.1.1 0 0 .1.1.1.1 0 0 .1 0 .1 0 0 0zm.3 0h-.1c0 .1 0 .1.1 0l-.1.1c.1 0 .2 0 .1-.1.1.1.1.1 0 0 .1.1.1.1 0 0 .1.1.1.1 0 0 .1.1.1.1 0 0 .1 0 .1 0 0 0zm.3.1s-.1 0 0 0c-.1.1-.1.1 0 0 0 .1 0 .1 0 0 0 .1 0 .1 0 0 0 .1-.1.1-.1.1H14.4c-.1-.1-.1-.1-.2-.1.1 0 0 0 0 0zm-.6-1.4.1.1h.1c.1 0 .2 0 .3.1.1 0 .1.1.2.1h.2c.1 0 .1 0 .2-.1-.2 0-.3-.1-.5-.2h.2s.1 0 .1-.1H14.2c-.1 0-.2-.1-.3-.1-.1 0-.3.1-.3.2z"/><g fill="#010101"><path d="M13.6 5.1zm1.3.5s-.1 0 0 0H14v-.1h.1s.1 0 .1-.1c.1 0 .2 0 .3.1.1 0 .1.1.2.1h.2c.1 0 .1 0 .2-.1-.2 0-.3-.1-.5-.2h.2s.1 0 .1-.1H14.6c-.1 0-.2-.1-.3-.1-.2 0-.3.1-.3.1h-.1v.1s0 .1-.1.1V6.2h-.1.2c0-.1.1-.1.1-.1V6.4l-.1.1h.1l.1-.1v-.1s0-.1.1-.1h.1v.2s0 .1-.1.1h.1v-.1s0-.1.1-.1v.1l-.1.1H14.6s.1 0 .1-.1v-.2c.1-.5.1-.5.2-.6-.1.1-.1.1 0 0-.1.1 0 .1 0 0 0 .1 0 0 0 0zm-.9-.5c0-.1 0-.1 0 0 0-.1 0-.1.1-.1 0 .1 0 .1-.1.1zm.1 0c.1-.1.1-.1.1 0s-.1.1-.1 0zm.6.2h-.1c0 .1 0 0 .1 0-.1 0 0 0 0 0zm-.1 0s0 .1 0 0h-.1.1c-.1 0 0 0 0 0zm-.1 0c-.1 0-.1 0 0 0h-.2.2c-.1 0-.1 0 0 0zm-.1 0h-.2c.1-.1.2 0 .2 0zm-.1-.1c-.1 0-.1 0 0 0h-.2.2c-.1-.1-.1-.1 0 0-.1-.1-.1-.1 0 0zm.2-.1zm0 0c-.1 0-.1 0 0 0-.1 0-.1 0 0 0-.1 0 0 0 0 0zm-.2 0c.1 0 .1 0 0 0 .1 0 .1 0 0 0zm0-.1c0 .1 0 .1 0 0-.1.1-.1.1 0 0-.1.1-.1 0 0 0-.1 0-.1 0 0 0zm-.1 0s0 .1 0 0h-.1.1zm-.1 0H14c.1-.1.1 0 .1 0zm-.2-.1c.1 0 .1 0 0 0 .1 0 .1.1 0 0 .1.1.1.1 0 0 .1.1 0 .1 0 0 0 .1 0 .1 0 0 0 .1 0 0 0 0zm0 0s0 .1 0 0c0 .1 0 .1 0 0 0 .1 0 .1 0 0h-.1c0 .1 0 0 .1 0zm-.4.2c-.1 0-.1-.1 0 0-.1-.1-.1-.1 0 0-.1-.1 0-.1 0 0h.1-.1zm1.4.6c-.1 0-.1 0 0 0-.1 0-.1 0 0 0-.1 0-.1 0 0 0-.1 0-.1.1 0 0l-.1.1V6l-.1.1h-.1v.1h-.1l.1-.1V6c-.1 0-.1.1-.1.1h-.1l.1-.1v-.2h-.1c-.1 0-.1.1-.1.1V6h-.1l.1-.1V5.6l-.1.1h-.1V5s0-.1.1-.1h.1l.1-.1h.2c-.1 0-.2.1-.2.1H14.7V5v-.1h.1V5h-.2.2-.2v.2h.7s-.5.5-.4.5c-.1-.1-.1-.1 0 0-.1-.1 0-.1 0 0 0-.1 0 0 0 0zm-1.3-.6zM13.6 5.2s.1 0 0 0c.1 0 .1 0 0 0zm0 0zm0 0c.1 0 .1 0 0 0 .1 0 .1 0 0 0z"/><path d="M13.5 5s0 .1 0 0c0 .1 0 .1 0 0 0 .1 0 .1 0 0 0 .1 0 .1 0 0zm0 .2c0-.1 0 0 0 0zm0 0zm0 0zm.1 0c0-.1 0-.1 0 0 0-.1 0-.1 0 0 0-.1 0-.1 0 0zm0-.1zm.1 0zm0 .2s0-.1 0 0c.1-.1.1-.1 0 0 .1-.1.1-.1 0 0 0-.1 0-.1 0 0 0-.1 0-.1 0 0 0-.1 0-.1 0 0 0-.1 0-.1 0 0zm-.1 0c0-.1 0-.1 0 0 0-.1 0-.1 0 0 0-.1 0 0 0 0zm.1-.1s-.1 0 0 0c-.1 0-.1 0 0 0-.1 0-.1 0 0 0-.1 0-.1 0 0 0zm.1 0c0-.1 0-.1 0 0 0-.1 0-.1 0 0 0-.1 0 0 0 0zm.1 0zm-.2.1c-.1 0-.1 0 0 0zm-.1 0zm-.1 0zm.2.2c0-.1 0-.1 0 0 0-.1 0-.1 0 0l.1-.1c-.1 0-.1 0-.1.1 0-.1 0-.1 0 0 0-.1 0-.1 0 0zm-.1-.1zm0 0c0 .1 0 .1 0 0 0 .1 0 .1 0 0 0 .1 0 .1 0 0 0 .1 0 .1 0 0zm.2 0zm-.2.2s.1 0 0 0c.1 0 .1 0 0 0 .1-.1.1-.1 0 0v-.1c.1 0 .1 0 0 .1.1-.1.1-.1 0 0 .1-.1.1-.1 0 0zm0 .1c.1 0 .1 0 0 0 .1 0 .1 0 0 0 .1 0 .1 0 0 0 .1 0 .1 0 0 0 .1 0 .1 0 0 0v-.1.1c.1 0 .1 0 0 0 .1 0 .1 0 0 0zm0 0zm0 .1zm.1-.3zm0 0c0 .1 0 .1 0 0 0 .1 0 .1 0 0l-.1.1c.1 0 .1 0 .1-.1 0 .1 0 .1 0 0 0 .1 0 .1 0 0 .1 0 .1 0 0 0zm0 0s.1.1 0 0c0 .1 0 .1 0 0 0 .1 0 .1 0 0 0 .1 0 .1 0 0 0 .1 0 .1 0 0 0 .1 0 .1 0 0 .1.1 0 0 0 0zm.1.2s0 .1 0 0c0 .1 0 .1 0 0 0 .1 0 .1 0 0 0 .1 0 .1 0 0 0 .1 0 0 0 0s0-.1 0 0v-.1l.1-.1-.1.1v.1c0-.1 0 0 0 0zm-.1.1-.1.1c0-.1 0-.1.1-.1 0 0 0-.1 0 0zm0 .2zm-.1 0zm.2 0c0 .1 0 .1 0 0 0 .1 0 .1 0 0 0 .1 0 .1 0 0 0 .1 0 .1 0 0 0 0-.1 0 0 0h-.1c0 .1.1.1.1 0 0 .1 0 .1 0 0 0 .1 0 .1 0 0 0 .1 0 .1 0 0 0 .1 0 .1 0 0 0 .1 0 .1 0 0zm0 .1s0 .1 0 0c0 .1-.1.1 0 0-.1.1-.1.1 0 0-.1.1-.1.1 0 0-.1.1-.1.1 0 .1-.1 0-.1 0 0-.1-.1.1-.1.1 0 0-.1.1-.1.1 0 0 0 .1 0 .1 0 0 0 .1 0 0 0 0zm-.1.2c0 .1 0 .1 0 0 0 .1 0 .1 0 0 0 .1 0 .1 0 0 0 .1 0 .1 0 0 0 .1 0 .1 0 0zm-.2-.1c0 .1 0 .1 0 0 0 .1 0 .1 0 0 0 .1 0 .1 0 0 0 .1 0 .1 0 0zm.4-.3c0 .1 0 .1 0 0V6v-.1s.1 0 0 0c.1 0 .1 0 0 0zm0 0c-.1 0-.1 0 0 0 0-.1 0-.1 0 0 0-.1 0-.1 0 0 0-.1-.1-.1 0 0 0-.1 0-.1 0 0-.1 0-.1 0 0 0-.1 0-.1 0 0 0-.1 0-.1 0 0 0 0 .1 0 .1 0 0 0 .1 0 0 0 0zm0-.2c-.1 0-.1 0 0 0-.1 0-.1 0 0 0-.1 0-.1.1 0 0v.1c-.1 0-.1 0 0-.1-.1.1-.1 0 0 0-.1 0-.1 0 0 0-.1 0-.1 0 0 0zm-.1.1s-.1.1 0 0c0 .1 0 .1 0 0v.1-.1c0 .1 0 .1 0 0 0 .1 0 0 0 0zm0 .2c0-.1 0-.1 0 0 0-.1 0-.1 0 0 0-.1 0-.1 0 0 0-.1 0-.1 0 0zm.1-.3c0 .1 0 .1 0 0 0 .1 0 0 0 0 0 .1 0 .1 0 0 0 .1 0 .1 0 0 0 .1 0 .1 0 0 0 .1 0 0 0 0zm-.1-.2c0 .1 0 .1 0 0 0 .1 0 .1 0 0 0 .1 0 .1 0 0 0 .1 0 .1 0 0 .1.1.1.1 0 0 .1.1.1.1 0 0 .1 0 .1 0 0 0 .1 0 .1 0 0 0 .1.1.1.1 0 0 .1.1.1.1 0 0 .1.1.1.1 0 0 .1.1.1.1 0 0 .1.1.1.1 0 0zm.2.3c0-.1 0-.1 0 0v-.2.2c0-.1 0-.1 0 0zm0 .1V6v-.1zm0 0s0-.1 0 0c0-.1 0-.1 0 0 0-.1 0-.1 0 0 0-.1 0-.1 0 0 0-.1 0-.1 0 0zm.1-.1c.1 0 .1 0 0 0 .1 0 .1 0 0 0 .1 0 .1 0 .1-.1 0 .1 0 .1-.1.1.1 0 .1 0 0 0 .1 0 .1 0 0 0v-.1.1zm.1.1s-.1.1 0 0c-.1.1-.1.1 0 0 0 0-.1 0 0 0h-.1c0 .1.1.1.1 0zm.1 0s-.1 0 0 0V6c-.1 0-.1 0 0-.1zm.1-.1c-.1.1-.1.1 0 0-.1.1-.1.1 0 0l-.1.1.1-.1c-.1.1-.1.1 0 0zm-.1.2v.1V6v.1V6zm-.2 0s0 .1 0 0v.1V6c0 .1 0 0 0 0zm0 .2zm.1 0zm-.2.2zm.5-.5v-.1.1c.1-.1.1-.1 0-.1v-.1.2s-.1 0 0 0c-.1 0-.1 0 0 0-.1 0-.1 0 0 0-.1 0-.1 0 0 0-.1 0-.1 0 0 0-.1 0-.1 0 0 0-.1 0-.1 0 0 0-.1 0-.1 0 0 0-.1 0-.1 0 0 0-.1.1-.1.1 0 0 0 .1 0 0 0 0zm-.1-.1c0 .1 0 .1 0 0 0 .1 0 .1 0 0 0 .1 0 .1 0 0 0 .1 0 .1 0 0 0 .1 0 .1 0 0 0 .1 0 .1 0 0 0 .1 0 .1 0 0 0 .1 0 .1 0 0zm-.1 0s0-.1 0 0c0-.1 0-.1 0 0 0-.1 0-.1 0 0 0-.1 0 0 0 0zm-.2-.1c0-.1 0-.1 0 0 0-.1 0-.1 0 0zm.1 0zm.2 0c-.1 0-.1 0 0 0-.1 0-.1 0 0 0-.1 0-.1 0 0 0-.1 0-.1 0 0 0-.1 0 0 0 0 0zm.2 0s0 .1 0 0c0 .1 0 .1 0 0 0 .1 0 .1 0 0 0 .1 0 .1 0 0 0 .1 0 .1 0 0 0 .1 0 .1 0 0 0 .1 0 0 0 0zm.1 0zm0 0zm.1 0zm-.2.2c-.1 0-.1 0 0 0-.1 0-.1.1 0 0-.1.1-.1.1 0 0-.1.1-.1.1 0 0-.1.1-.1.1 0 0V6c-.1 0-.1 0 0-.1-.1.1-.1.1 0 0-.1.1-.1.1 0 0V6c-.1 0-.1 0 0-.1-.1.1-.1.1 0 0-.1.1-.1.1 0 0-.1.1-.1.1 0 0 0 .1 0 .1 0 0zm0 .2s-.1 0 0 0c0 .1 0 .1 0 0 0 .1 0 .1 0 0 0 .1 0 .1 0 0 0 .1 0 .1 0 0 0 .1 0 .1 0 0zm-.1 0c0 .1 0 .1 0 0 0 .1 0 .1 0 0 0 .1 0 .1 0 0 0 .1 0 .1 0 0-.1 0-.1 0 0 0-.1 0-.1 0 0 0 0 .1 0 .1 0 0 0 .1 0 .1 0 0zm0 .2zm-.1 0s0 .1 0 0c0 .1 0 .1 0 0 0 .1 0 .1 0 0 0 .1 0 .1 0 0 0 .1 0 .1 0 0 0 .1 0 .1 0 0 0 .1 0 0 0 0zm0 .1s-.1 0 0 0c-.1.1-.1.1 0 0-.1.1-.1.1 0 0-.1.1-.1.1 0 0 0 .1 0 .1 0 0zm0-.2zm-.2-.1zM14 6c0 .1 0 .1 0 0 0 .1 0 .1 0 0 0 .1 0 .1 0 0z"/></g></svg>